<svg width="24" height="24" viewBox="0 0 24 24" fill="none" xmlns="http://www.w3.org/2000/svg">
<path d="M5.28501 1.36869e-05C4.59053 -0.00156858 3.90258 0.134052 3.26066 0.399088C2.61874 0.664123 2.0355 1.05335 1.54443 1.54443C1.05335 2.0355 0.664123 2.61874 0.399088 3.26066C0.134052 3.90258 -0.00156858 4.59053 1.36869e-05 5.28501V18.715C-0.00156858 19.4095 0.134052 20.0974 0.399088 20.7394C0.664123 21.3813 1.05335 21.9645 1.54443 22.4556C2.0355 22.9467 2.61874 23.3359 3.26066 23.6009C3.90258 23.866 4.59053 24.0016 5.28501 24H18.715C19.4095 24.0016 20.0974 23.866 20.7394 23.6009C21.3813 23.3359 21.9645 22.9467 22.4556 22.4556C22.9467 21.9645 23.3359 21.3813 23.6009 20.7394C23.866 20.0974 24.0016 19.4095 24 18.715V5.28501C24.0016 4.59053 23.866 3.90258 23.6009 3.26066C23.3359 2.61874 22.9467 2.0355 22.4556 1.54443C21.9645 1.05335 21.3813 0.664123 20.7394 0.399088C20.0974 0.134052 19.4095 -0.00156858 18.715 1.36869e-05H5.28501ZM12 4.15401C13.1569 4.15401 14.3025 4.34382 15.3713 4.71261C16.4402 5.08139 17.4113 5.62192 18.2293 6.30332C19.0473 6.98473 19.6962 7.79368 20.1388 8.68396C20.5814 9.57424 20.8092 10.5284 20.809 11.492C20.8087 13.4377 19.8805 15.3037 18.2285 16.6794C16.5765 18.0551 14.3361 18.828 12 18.828C11.1562 18.8269 10.317 18.7249 9.50801 18.525C8.45876 19.2204 7.23433 19.7013 5.93001 19.93C6.60233 19.2801 7.12284 18.5518 7.47001 17.775C6.16667 17.1241 5.08766 16.2034 4.33787 15.1025C3.58807 14.0015 3.19299 12.7578 3.19101 11.492C3.19086 10.5284 3.41859 9.57424 3.86121 8.68396C4.30384 7.79368 4.95268 6.98473 5.77069 6.30332C6.58869 5.62192 7.55984 5.08139 8.62868 4.71261C9.69751 4.34382 10.8431 4.15401 12 4.15401Z" fill="#FF7A00"/>
</svg>
