<svg width="57" height="56" viewBox="0 0 57 56" fill="none" xmlns="http://www.w3.org/2000/svg">
<rect x="4.66672" y="4" width="48" height="48" rx="24" fill="#F4EBFF"/>
<rect x="4.66672" y="4" width="48" height="48" rx="24" stroke="#F9F5FF" stroke-width="8"/>
<path d="M27.6667 19H24.4667C22.7866 19 21.9465 19 21.3047 19.327C20.7403 19.6146 20.2813 20.0735 19.9937 20.638C19.6667 21.2798 19.6667 22.1198 19.6667 23.8V32.2C19.6667 33.8802 19.6667 34.7202 19.9937 35.362C20.2813 35.9265 20.7403 36.3854 21.3047 36.673C21.9465 37 22.7866 37 24.4667 37H32.8667C34.5469 37 35.387 37 36.0287 36.673C36.5932 36.3854 37.0521 35.9265 37.3397 35.362C37.6667 34.7202 37.6667 33.8802 37.6667 32.2V29M28.6667 24H32.6667V28M32.1667 19.5V18M36.1061 20.5607L37.1667 19.5M37.177 24.5H38.677M19.6667 29.3471C20.3187 29.4478 20.9866 29.5 21.6667 29.5C26.0531 29.5 29.932 27.3276 32.2864 24" stroke="#7F56D9" stroke-width="2" stroke-linecap="round" stroke-linejoin="round"/>
</svg>
