<svg width="57" height="56" viewBox="0 0 57 56" fill="none" xmlns="http://www.w3.org/2000/svg">
<rect x="4.66797" y="4" width="48" height="48" rx="24" fill="#FFD6B0"/>
<rect x="4.66797" y="4" width="48" height="48" rx="24" stroke="#FFF6EE" stroke-width="8"/>
<path d="M27.668 19H24.468C22.7878 19 21.9477 19 21.306 19.327C20.7415 19.6146 20.2826 20.0735 19.9949 20.638C19.668 21.2798 19.668 22.1198 19.668 23.8V32.2C19.668 33.8802 19.668 34.7202 19.9949 35.362C20.2826 35.9265 20.7415 36.3854 21.306 36.673C21.9477 37 22.7878 37 24.468 37H32.868C34.5481 37 35.3882 37 36.0299 36.673C36.5944 36.3854 37.0534 35.9265 37.341 35.362C37.668 34.7202 37.668 33.8802 37.668 32.2V29M28.668 24H32.668V28M32.168 19.5V18M36.1073 20.5607L37.168 19.5M37.1782 24.5H38.6782M19.668 29.3471C20.3199 29.4478 20.9878 29.5 21.668 29.5C26.0543 29.5 29.9333 27.3276 32.2877 24" stroke="#FF7A00" stroke-width="2" stroke-linecap="round" stroke-linejoin="round"/>
</svg>
