<svg width="107" height="30" viewBox="0 0 107 30" fill="none" xmlns="http://www.w3.org/2000/svg">
<g opacity="0.9">
<path fill-rule="evenodd" clip-rule="evenodd" d="M14.125 28.75C21.7189 28.75 27.875 22.5939 27.875 15C27.875 7.40609 21.7189 1.25 14.125 1.25C6.53107 1.25 0.375 7.40609 0.375 15C0.375 22.5939 6.53107 28.75 14.125 28.75ZM18.4145 7.65533C18.6233 6.91366 17.9036 6.47509 17.2463 6.9434L8.07026 13.4803C7.3574 13.9882 7.46953 15 8.2387 15H10.655V14.9813H15.3642L11.5271 16.3352L9.83549 22.3447C9.6267 23.0864 10.3464 23.5249 11.0038 23.0566L20.1797 16.5197C20.8926 16.0119 20.7804 15 20.0113 15H16.3471L18.4145 7.65533Z" fill="#98A2B3"/>
<path d="M34.9875 21.1933V19.0183H36.7125V10.2433H34.9875V8.06829H41.7375C42.5375 8.06829 43.2312 8.20579 43.8187 8.48079C44.4187 8.74329 44.8812 9.12454 45.2062 9.62454C45.5437 10.112 45.7125 10.6995 45.7125 11.387V11.5745C45.7125 12.1745 45.6 12.6683 45.375 13.0558C45.15 13.4308 44.8812 13.7245 44.5687 13.937C44.2687 14.137 43.9812 14.2808 43.7062 14.3683V14.7058C43.9812 14.7808 44.2812 14.9245 44.6062 15.137C44.9312 15.337 45.2062 15.6308 45.4312 16.0183C45.6687 16.4058 45.7875 16.912 45.7875 17.537V17.7245C45.7875 18.4495 45.6187 19.0745 45.2812 19.5995C44.9437 20.112 44.475 20.5058 43.875 20.7808C43.2875 21.0558 42.6 21.1933 41.8125 21.1933H34.9875ZM39.1875 18.9433H41.5125C42.05 18.9433 42.4812 18.812 42.8062 18.5495C43.1437 18.287 43.3125 17.912 43.3125 17.4245V17.237C43.3125 16.7495 43.15 16.3745 42.825 16.112C42.5 15.8495 42.0625 15.7183 41.5125 15.7183H39.1875V18.9433ZM39.1875 13.4683H41.475C41.9875 13.4683 42.4062 13.337 42.7312 13.0745C43.0687 12.812 43.2375 12.4495 43.2375 11.987V11.7995C43.2375 11.3245 43.075 10.962 42.75 10.712C42.425 10.4495 42 10.3183 41.475 10.3183H39.1875V13.4683Z" fill="#98A2B3"/>
<path d="M51.3762 21.4558C50.4512 21.4558 49.6199 21.2683 48.8824 20.8933C48.1449 20.5183 47.5637 19.9745 47.1387 19.262C46.7137 18.5495 46.5012 17.6933 46.5012 16.6933V16.3933C46.5012 15.3933 46.7137 14.537 47.1387 13.8245C47.5637 13.112 48.1449 12.5683 48.8824 12.1933C49.6199 11.8183 50.4512 11.6308 51.3762 11.6308C52.3012 11.6308 53.1324 11.8183 53.8699 12.1933C54.6074 12.5683 55.1887 13.112 55.6137 13.8245C56.0387 14.537 56.2512 15.3933 56.2512 16.3933V16.6933C56.2512 17.6933 56.0387 18.5495 55.6137 19.262C55.1887 19.9745 54.6074 20.5183 53.8699 20.8933C53.1324 21.2683 52.3012 21.4558 51.3762 21.4558ZM51.3762 19.3558C52.1012 19.3558 52.7012 19.1245 53.1762 18.662C53.6512 18.187 53.8887 17.512 53.8887 16.637V16.4495C53.8887 15.5745 53.6512 14.9058 53.1762 14.4433C52.7137 13.9683 52.1137 13.7308 51.3762 13.7308C50.6512 13.7308 50.0512 13.9683 49.5762 14.4433C49.1012 14.9058 48.8637 15.5745 48.8637 16.4495V16.637C48.8637 17.512 49.1012 18.187 49.5762 18.662C50.0512 19.1245 50.6512 19.3558 51.3762 19.3558Z" fill="#98A2B3"/>
<path d="M57.4944 21.1933V8.06829H59.8569V21.1933H57.4944Z" fill="#98A2B3"/>
<path d="M65.0998 21.1933C64.4873 21.1933 63.9873 21.0058 63.5998 20.6308C63.2248 20.2433 63.0373 19.7308 63.0373 19.0933V13.8433H60.7123V11.8933H63.0373V9.00579H65.3998V11.8933H67.9498V13.8433H65.3998V18.6808C65.3998 19.0558 65.5748 19.2433 65.9248 19.2433H67.7248V21.1933H65.0998Z" fill="#98A2B3"/>
<path d="M73.0134 21.4558C71.8009 21.4558 70.8071 21.1933 70.0321 20.6683C69.2571 20.1433 68.7884 19.3933 68.6259 18.4183L70.8009 17.8558C70.8884 18.2933 71.0321 18.637 71.2321 18.887C71.4446 19.137 71.7009 19.3183 72.0009 19.4308C72.3134 19.5308 72.6509 19.5808 73.0134 19.5808C73.5634 19.5808 73.9696 19.487 74.2321 19.2995C74.4946 19.0995 74.6259 18.8558 74.6259 18.5683C74.6259 18.2808 74.5009 18.062 74.2509 17.912C74.0009 17.7495 73.6009 17.6183 73.0509 17.5183L72.5259 17.4245C71.8759 17.2995 71.2821 17.1308 70.7446 16.9183C70.2071 16.6933 69.7759 16.387 69.4509 15.9995C69.1259 15.612 68.9634 15.112 68.9634 14.4995C68.9634 13.5745 69.3009 12.8683 69.9759 12.3808C70.6509 11.8808 71.5384 11.6308 72.6384 11.6308C73.6759 11.6308 74.5384 11.862 75.2259 12.3245C75.9134 12.787 76.3634 13.3933 76.5759 14.1433L74.3821 14.8183C74.2821 14.3433 74.0759 14.0058 73.7634 13.8058C73.4634 13.6058 73.0884 13.5058 72.6384 13.5058C72.1884 13.5058 71.8446 13.587 71.6071 13.7495C71.3696 13.8995 71.2509 14.112 71.2509 14.387C71.2509 14.687 71.3759 14.912 71.6259 15.062C71.8759 15.1995 72.2134 15.3058 72.6384 15.3808L73.1634 15.4745C73.8634 15.5995 74.4946 15.7683 75.0571 15.9808C75.6321 16.1808 76.0821 16.4745 76.4071 16.862C76.7446 17.237 76.9134 17.7495 76.9134 18.3995C76.9134 19.3745 76.5571 20.1308 75.8446 20.6683C75.1446 21.1933 74.2009 21.4558 73.0134 21.4558Z" fill="#98A2B3"/>
<path d="M78.0461 21.1933V8.06829H80.4086V13.037H80.7461C80.8461 12.837 81.0024 12.637 81.2149 12.437C81.4274 12.237 81.7086 12.0745 82.0586 11.9495C82.4211 11.812 82.8774 11.7433 83.4274 11.7433C84.1524 11.7433 84.7836 11.912 85.3211 12.2495C85.8711 12.5745 86.2961 13.0308 86.5961 13.6183C86.8961 14.1933 87.0461 14.8683 87.0461 15.6433V21.1933H84.6836V15.8308C84.6836 15.1308 84.5086 14.6058 84.1586 14.2558C83.8211 13.9058 83.3336 13.7308 82.6961 13.7308C81.9711 13.7308 81.4086 13.9745 81.0086 14.462C80.6086 14.937 80.4086 15.6058 80.4086 16.4683V21.1933H78.0461Z" fill="#98A2B3"/>
<path d="M88.6626 21.1933V11.8933H91.0251V21.1933H88.6626ZM89.8438 10.8058C89.4188 10.8058 89.0563 10.6683 88.7563 10.3933C88.4688 10.1183 88.3251 9.75579 88.3251 9.30579C88.3251 8.85579 88.4688 8.49329 88.7563 8.21829C89.0563 7.94329 89.4188 7.80579 89.8438 7.80579C90.2813 7.80579 90.6438 7.94329 90.9313 8.21829C91.2188 8.49329 91.3626 8.85579 91.3626 9.30579C91.3626 9.75579 91.2188 10.1183 90.9313 10.3933C90.6438 10.6683 90.2813 10.8058 89.8438 10.8058Z" fill="#98A2B3"/>
<path d="M94.2431 21.1933V13.8433H91.8806V11.8933H94.2431V10.1683C94.2431 9.53079 94.4306 9.02454 94.8056 8.64954C95.1931 8.26204 95.6931 8.06829 96.3056 8.06829H98.7431V10.0183H97.1306C96.7806 10.0183 96.6056 10.2058 96.6056 10.5808V11.8933H99.0431V13.8433H96.6056V21.1933H94.2431Z" fill="#98A2B3"/>
<path d="M103.314 21.1933C102.701 21.1933 102.201 21.0058 101.814 20.6308C101.439 20.2433 101.251 19.7308 101.251 19.0933V13.8433H98.9265V11.8933H101.251V9.00579H103.614V11.8933H106.164V13.8433H103.614V18.6808C103.614 19.0558 103.789 19.2433 104.139 19.2433H105.939V21.1933H103.314Z" fill="#98A2B3"/>
</g>
</svg>
