<svg width="21" height="24" viewBox="0 0 21 24" fill="none" xmlns="http://www.w3.org/2000/svg">
<path fill-rule="evenodd" clip-rule="evenodd" d="M9.16049 9.98773C11.1811 9.98773 12.819 11.6755 12.819 13.7576C12.819 15.8397 11.1811 17.5275 9.16049 17.5275C7.13984 17.5275 5.50194 15.8397 5.50194 13.7576C5.50194 11.6757 7.14009 9.98773 9.16049 9.98773ZM17.9232 17.6595C19.6224 17.6595 21 19.0789 21 20.8299C21 22.5805 19.6224 24 17.9232 24C16.224 24 14.8464 22.5805 14.8464 20.8296C14.8467 19.0787 16.224 17.6595 17.9232 17.6595ZM18.1851 21.8387C18.2591 21.8051 18.3256 21.7576 18.3821 21.6995C18.4995 21.5784 18.572 21.4115 18.572 21.2269C18.572 21.0424 18.4993 20.8752 18.3821 20.7544C18.3758 20.748 18.3694 20.7421 18.3629 20.7365C18.2467 20.6261 18.0925 20.5587 17.9235 20.5587C17.8552 20.5587 17.8011 20.5029 17.8011 20.4325C17.8011 20.3976 17.8148 20.3661 17.8368 20.3432C17.8596 20.3187 17.8903 20.3064 17.9235 20.3064C17.945 20.3064 17.9644 20.3115 17.9807 20.3203C17.9983 20.3299 18.0135 20.3437 18.0247 20.3605C18.1064 20.484 18.2697 20.5157 18.3896 20.4315C18.5094 20.3472 18.5402 20.1789 18.4584 20.0555C18.3989 19.9661 18.3186 19.8923 18.2252 19.8413C18.212 19.8341 18.1988 19.8275 18.1851 19.8213C18.1719 19.6843 18.0596 19.5773 17.9232 19.5773C17.7868 19.5773 17.6748 19.6843 17.6616 19.8208C17.5907 19.8533 17.5198 19.9029 17.4646 19.9595C17.3471 20.0805 17.2747 20.2475 17.2747 20.432C17.2747 20.8 17.5658 21.1003 17.9232 21.1003C17.9913 21.1003 18.0456 21.156 18.0456 21.2264C18.0456 21.2613 18.0319 21.2928 18.0099 21.3157C17.9879 21.3387 17.9571 21.3525 17.9232 21.3525C17.9017 21.3525 17.8823 21.3475 17.866 21.3387C17.8482 21.3291 17.8332 21.3152 17.822 21.2984C17.7402 21.1749 17.577 21.1432 17.4571 21.2275C17.3373 21.3117 17.3065 21.48 17.3883 21.6035C17.4478 21.6931 17.528 21.7667 17.6215 21.8176C17.6347 21.8248 17.6479 21.8315 17.6616 21.8376C17.6748 21.9747 17.7871 22.0816 17.9235 22.0816C18.0593 22.0819 18.1714 21.9752 18.1851 21.8387ZM17.9232 18.3035C17.2462 18.3035 16.6334 18.5861 16.1896 19.0435C15.746 19.5005 15.4714 20.1323 15.4714 20.8299C15.4714 21.5275 15.7457 22.1589 16.1896 22.6163C16.6331 23.0733 17.2462 23.3563 17.9232 23.3563C18.6002 23.3563 19.213 23.0736 19.6569 22.6163C20.1004 22.1592 20.375 21.5275 20.375 20.8299C20.375 20.1323 20.1007 19.5008 19.6569 19.0435C19.2133 18.5861 18.6002 18.3035 17.9232 18.3035ZM19.2847 19.4267C18.9364 19.0677 18.455 18.8456 17.9232 18.8456C17.3914 18.8456 16.91 19.0677 16.5617 19.4267C16.2134 19.7856 15.9978 20.2816 15.9978 20.8296C15.9978 21.3776 16.2134 21.8736 16.5617 22.2325C16.91 22.5915 17.3914 22.8136 17.9232 22.8136C18.455 22.8136 18.9364 22.5915 19.2847 22.2325C19.6331 21.8736 19.8486 21.3776 19.8486 20.8296C19.8489 20.2819 19.6333 19.7859 19.2847 19.4267ZM13.648 0C14.0372 0 14.3558 0.328267 14.3558 0.729333V3.14293C14.3558 3.54427 14.0372 3.87227 13.648 3.87227C13.2587 3.87227 12.9402 3.544 12.9402 3.14293V0.729333C12.9399 0.328267 13.2585 0 13.648 0ZM4.67328 0C5.06251 0 5.38108 0.328267 5.38108 0.729333V3.14293C5.38108 3.54427 5.06251 3.87227 4.67328 3.87227C4.28406 3.87227 3.96548 3.544 3.96548 3.14293V0.729333C3.96548 0.328267 4.28406 0 4.67328 0ZM2.93678 19.9816C2.2973 19.9816 1.7158 19.7309 1.29396 19.3275C0.872132 18.9237 0.610233 18.3672 0.610233 17.7555V7.6408C0.610233 7.58187 0.656816 7.53387 0.714009 7.53387H17.607C17.6642 7.53387 17.7107 7.58187 17.7107 7.6408V16.9037C17.7107 16.9336 17.7214 16.9595 17.7421 16.9803C17.763 17.0011 17.7884 17.0112 17.8174 17.0104C17.8526 17.0093 17.8878 17.0088 17.9232 17.0088C18.0195 17.0088 18.115 17.0128 18.2094 17.0203C18.2392 17.0227 18.2659 17.0131 18.2879 16.9923C18.3099 16.9712 18.321 16.9448 18.321 16.9139V7.24187C18.321 7.08053 18.1843 6.94987 18.0159 6.94987H0.305117C0.136643 6.94987 0 7.08053 0 7.24187V17.7555C0 18.5285 0.33022 19.2312 0.862298 19.7405C1.39438 20.2499 2.12857 20.5659 2.93652 20.5659H14.1283C14.1821 20.5659 14.2264 20.524 14.2315 20.4691C14.2427 20.3472 14.2592 20.2269 14.2812 20.1085C14.2872 20.0763 14.2797 20.0459 14.2592 20.0205C14.2388 19.9952 14.2113 19.9819 14.1793 19.9819L2.93678 19.9816ZM1.45079 1.93627C0.652934 1.93627 0 2.60907 0 3.4312V6.0856C0 6.2032 0.0931653 6.2992 0.207293 6.2992H18.1142C18.2283 6.2992 18.3215 6.2032 18.3215 6.0856V3.4312C18.3215 2.60907 17.6686 1.93627 16.8707 1.93627H15.1948C15.0806 1.93627 14.9875 2.03227 14.9875 2.14987V3.1432C14.9875 3.90213 14.3847 4.5232 13.6482 4.5232C12.9117 4.5232 12.309 3.90213 12.309 3.1432V2.14987C12.309 2.03227 12.2158 1.93627 12.1017 1.93627H6.21983C6.1057 1.93627 6.01253 2.03227 6.01253 2.14987V3.1432C6.01253 3.90213 5.40981 4.5232 4.67328 4.5232C3.93676 4.5232 3.33403 3.90213 3.33403 3.1432V2.14987C3.33403 2.03227 3.24086 1.93627 3.12673 1.93627H1.45079ZM7.79173 12.8072L8.64083 13.6821C8.6812 13.7237 8.6812 13.7915 8.64083 13.8331L7.79173 14.708C7.66855 14.8349 7.66855 15.0411 7.79173 15.168C7.91492 15.2949 8.11497 15.2949 8.23815 15.168L9.08725 14.2931C9.12762 14.2515 9.19336 14.2515 9.23373 14.2931L10.0828 15.168C10.206 15.2949 10.4061 15.2949 10.5292 15.168C10.6524 15.0411 10.6524 14.8349 10.5292 14.708L9.68015 13.8331C9.63977 13.7915 9.63977 13.7237 9.68015 13.6821L10.5292 12.8072C10.6524 12.6803 10.6524 12.4741 10.5292 12.3472C10.4061 12.2203 10.206 12.2203 10.0828 12.3472L9.23373 13.2221C9.19336 13.2637 9.12762 13.2637 9.08725 13.2221L8.23815 12.3472C8.11497 12.2203 7.91492 12.2203 7.79173 12.3472C7.66855 12.4744 7.66855 12.6803 7.79173 12.8072Z" fill="#FF7A00"/>
</svg>
