<svg width="17" height="16" viewBox="0 0 17 16" fill="none" xmlns="http://www.w3.org/2000/svg">
<mask id="path-1-inside-1_1802_2535" fill="white">
<path d="M7.90016 15.1663H5.10016C2.4935 15.1663 1.3335 14.0063 1.3335 11.3997V8.59967C1.3335 5.99301 2.4935 4.83301 5.10016 4.83301H7.90016C10.5068 4.83301 11.6668 5.99301 11.6668 8.59967V11.3997C11.6668 14.0063 10.5068 15.1663 7.90016 15.1663ZM5.10016 5.83301C3.0335 5.83301 2.3335 6.53301 2.3335 8.59967V11.3997C2.3335 13.4663 3.0335 14.1663 5.10016 14.1663H7.90016C9.96683 14.1663 10.6668 13.4663 10.6668 11.3997V8.59967C10.6668 6.53301 9.96683 5.83301 7.90016 5.83301H5.10016Z"/>
</mask>
<path d="M7.90016 15.1663H5.10016C2.4935 15.1663 1.3335 14.0063 1.3335 11.3997V8.59967C1.3335 5.99301 2.4935 4.83301 5.10016 4.83301H7.90016C10.5068 4.83301 11.6668 5.99301 11.6668 8.59967V11.3997C11.6668 14.0063 10.5068 15.1663 7.90016 15.1663ZM5.10016 5.83301C3.0335 5.83301 2.3335 6.53301 2.3335 8.59967V11.3997C2.3335 13.4663 3.0335 14.1663 5.10016 14.1663H7.90016C9.96683 14.1663 10.6668 13.4663 10.6668 11.3997V8.59967C10.6668 6.53301 9.96683 5.83301 7.90016 5.83301H5.10016Z" fill="white"/>
<path d="M7.90016 14.1663H5.10016V16.1663H7.90016V14.1663ZM5.10016 14.1663C3.92172 14.1663 3.29457 13.9015 2.94644 13.5534C2.5983 13.2053 2.3335 12.5781 2.3335 11.3997H0.333496C0.333496 12.8279 0.648694 14.0841 1.53222 14.9676C2.41575 15.8511 3.67194 16.1663 5.10016 16.1663V14.1663ZM2.3335 11.3997V8.59967H0.333496V11.3997H2.3335ZM2.3335 8.59967C2.3335 7.42123 2.5983 6.79409 2.94644 6.44595C3.29457 6.09781 3.92172 5.83301 5.10016 5.83301V3.83301C3.67194 3.83301 2.41575 4.14821 1.53222 5.03173C0.648694 5.91526 0.333496 7.17145 0.333496 8.59967H2.3335ZM5.10016 5.83301H7.90016V3.83301H5.10016V5.83301ZM7.90016 5.83301C9.07861 5.83301 9.70575 6.09781 10.0539 6.44595C10.402 6.79409 10.6668 7.42123 10.6668 8.59967H12.6668C12.6668 7.17145 12.3516 5.91526 11.4681 5.03173C10.5846 4.14821 9.32838 3.83301 7.90016 3.83301V5.83301ZM10.6668 8.59967V11.3997H12.6668V8.59967H10.6668ZM10.6668 11.3997C10.6668 12.5781 10.402 13.2053 10.0539 13.5534C9.70575 13.9015 9.07861 14.1663 7.90016 14.1663V16.1663C9.32838 16.1663 10.5846 15.8511 11.4681 14.9676C12.3516 14.0841 12.6668 12.8279 12.6668 11.3997H10.6668ZM5.10016 4.83301C4.00774 4.83301 2.96322 5.00573 2.23472 5.73423C1.50622 6.46274 1.3335 7.50725 1.3335 8.59967H3.3335C3.3335 7.62543 3.51077 7.28661 3.64894 7.14845C3.7871 7.01028 4.12592 6.83301 5.10016 6.83301V4.83301ZM1.3335 8.59967V11.3997H3.3335V8.59967H1.3335ZM1.3335 11.3997C1.3335 12.4921 1.50622 13.5366 2.23472 14.2651C2.96322 14.9936 4.00774 15.1663 5.10016 15.1663V13.1663C4.12592 13.1663 3.7871 12.9891 3.64894 12.8509C3.51077 12.7127 3.3335 12.3739 3.3335 11.3997H1.3335ZM5.10016 15.1663H7.90016V13.1663H5.10016V15.1663ZM7.90016 15.1663C8.99259 15.1663 10.0371 14.9936 10.7656 14.2651C11.4941 13.5366 11.6668 12.4921 11.6668 11.3997H9.66683C9.66683 12.3739 9.48955 12.7127 9.35139 12.8509C9.21322 12.9891 8.8744 13.1663 7.90016 13.1663V15.1663ZM11.6668 11.3997V8.59967H9.66683V11.3997H11.6668ZM11.6668 8.59967C11.6668 7.50725 11.4941 6.46274 10.7656 5.73423C10.0371 5.00573 8.99259 4.83301 7.90016 4.83301V6.83301C8.8744 6.83301 9.21322 7.01028 9.35139 7.14845C9.48955 7.28661 9.66683 7.62543 9.66683 8.59967H11.6668ZM7.90016 4.83301H5.10016V6.83301H7.90016V4.83301Z" fill="white" mask="url(#path-1-inside-1_1802_2535)"/>
<mask id="path-3-inside-2_1802_2535" fill="white">
<path d="M11.9002 11.1663H11.1668C10.8935 11.1663 10.6668 10.9397 10.6668 10.6663V8.59967C10.6668 6.53301 9.96683 5.83301 7.90016 5.83301H5.8335C5.56016 5.83301 5.3335 5.60634 5.3335 5.33301V4.59967C5.3335 1.99301 6.4935 0.833008 9.10016 0.833008H11.9002C14.5068 0.833008 15.6668 1.99301 15.6668 4.59967V7.39967C15.6668 10.0063 14.5068 11.1663 11.9002 11.1663ZM11.6668 10.1663H11.9002C13.9668 10.1663 14.6668 9.46634 14.6668 7.39967V4.59967C14.6668 2.53301 13.9668 1.83301 11.9002 1.83301H9.10016C7.0335 1.83301 6.3335 2.53301 6.3335 4.59967V4.83301H7.90016C10.5068 4.83301 11.6668 5.99301 11.6668 8.59967V10.1663Z"/>
</mask>
<path d="M11.9002 11.1663H11.1668C10.8935 11.1663 10.6668 10.9397 10.6668 10.6663V8.59967C10.6668 6.53301 9.96683 5.83301 7.90016 5.83301H5.8335C5.56016 5.83301 5.3335 5.60634 5.3335 5.33301V4.59967C5.3335 1.99301 6.4935 0.833008 9.10016 0.833008H11.9002C14.5068 0.833008 15.6668 1.99301 15.6668 4.59967V7.39967C15.6668 10.0063 14.5068 11.1663 11.9002 11.1663ZM11.6668 10.1663H11.9002C13.9668 10.1663 14.6668 9.46634 14.6668 7.39967V4.59967C14.6668 2.53301 13.9668 1.83301 11.9002 1.83301H9.10016C7.0335 1.83301 6.3335 2.53301 6.3335 4.59967V4.83301H7.90016C10.5068 4.83301 11.6668 5.99301 11.6668 8.59967V10.1663Z" fill="white"/>
<path d="M11.6668 10.1663H10.6668V11.1663H11.6668V10.1663ZM6.3335 4.83301H5.3335V5.83301H6.3335V4.83301ZM11.9002 10.1663H11.1668V12.1663H11.9002V10.1663ZM11.1668 10.1663C11.4458 10.1663 11.6668 10.3874 11.6668 10.6663H9.66683C9.66683 11.492 10.3412 12.1663 11.1668 12.1663V10.1663ZM11.6668 10.6663V8.59967H9.66683V10.6663H11.6668ZM11.6668 8.59967C11.6668 7.50725 11.4941 6.46274 10.7656 5.73423C10.0371 5.00573 8.99259 4.83301 7.90016 4.83301V6.83301C8.8744 6.83301 9.21322 7.01028 9.35139 7.14845C9.48955 7.28661 9.66683 7.62543 9.66683 8.59967H11.6668ZM7.90016 4.83301H5.8335V6.83301H7.90016V4.83301ZM5.8335 4.83301C6.11245 4.83301 6.3335 5.05406 6.3335 5.33301H4.3335C4.3335 6.15863 5.00788 6.83301 5.8335 6.83301V4.83301ZM6.3335 5.33301V4.59967H4.3335V5.33301H6.3335ZM6.3335 4.59967C6.3335 3.42123 6.5983 2.79409 6.94644 2.44595C7.29457 2.09781 7.92172 1.83301 9.10016 1.83301V-0.166992C7.67194 -0.166992 6.41575 0.148206 5.53222 1.03173C4.64869 1.91526 4.3335 3.17145 4.3335 4.59967H6.3335ZM9.10016 1.83301H11.9002V-0.166992H9.10016V1.83301ZM11.9002 1.83301C13.0786 1.83301 13.7058 2.09781 14.0539 2.44595C14.402 2.79409 14.6668 3.42123 14.6668 4.59967H16.6668C16.6668 3.17145 16.3516 1.91526 15.4681 1.03173C14.5846 0.148206 13.3284 -0.166992 11.9002 -0.166992V1.83301ZM14.6668 4.59967V7.39967H16.6668V4.59967H14.6668ZM14.6668 7.39967C14.6668 8.57812 14.402 9.20526 14.0539 9.5534C13.7058 9.90154 13.0786 10.1663 11.9002 10.1663V12.1663C13.3284 12.1663 14.5846 11.8511 15.4681 10.9676C16.3516 10.0841 16.6668 8.8279 16.6668 7.39967H14.6668ZM11.6668 11.1663H11.9002V9.16634H11.6668V11.1663ZM11.9002 11.1663C12.9926 11.1663 14.0371 10.9936 14.7656 10.2651C15.4941 9.53661 15.6668 8.4921 15.6668 7.39967H13.6668C13.6668 8.37391 13.4896 8.71274 13.3514 8.8509C13.2132 8.98907 12.8744 9.16634 11.9002 9.16634V11.1663ZM15.6668 7.39967V4.59967H13.6668V7.39967H15.6668ZM15.6668 4.59967C15.6668 3.50725 15.4941 2.46274 14.7656 1.73423C14.0371 1.00573 12.9926 0.833008 11.9002 0.833008V2.83301C12.8744 2.83301 13.2132 3.01028 13.3514 3.14845C13.4896 3.28661 13.6668 3.62543 13.6668 4.59967H15.6668ZM11.9002 0.833008H9.10016V2.83301H11.9002V0.833008ZM9.10016 0.833008C8.00774 0.833008 6.96322 1.00573 6.23472 1.73423C5.50622 2.46274 5.3335 3.50725 5.3335 4.59967H7.3335C7.3335 3.62543 7.51077 3.28661 7.64894 3.14845C7.7871 3.01028 8.12592 2.83301 9.10016 2.83301V0.833008ZM5.3335 4.59967V4.83301H7.3335V4.59967H5.3335ZM6.3335 5.83301H7.90016V3.83301H6.3335V5.83301ZM7.90016 5.83301C9.07861 5.83301 9.70575 6.09781 10.0539 6.44595C10.402 6.79409 10.6668 7.42123 10.6668 8.59967H12.6668C12.6668 7.17145 12.3516 5.91526 11.4681 5.03173C10.5846 4.14821 9.32838 3.83301 7.90016 3.83301V5.83301ZM10.6668 8.59967V10.1663H12.6668V8.59967H10.6668Z" fill="white" mask="url(#path-3-inside-2_1802_2535)"/>
</svg>
