<svg width="124" height="30" viewBox="0 0 124 30" fill="none" xmlns="http://www.w3.org/2000/svg">
<g opacity="0.9">
<path opacity="0.8" d="M22.6916 6.97702C22.4215 6.70688 22.1513 6.43674 21.8812 6.1666C21.0708 5.30216 20.2063 4.43772 19.1258 3.89745C17.8831 3.24912 16.5325 3.4112 15.1818 3.4112C13.1287 3.4112 7.99611 3.4112 4.97057 3.4112L7.02361 6.1666C10.7515 6.1666 16.5865 6.1666 19.2879 6.1666C20.4224 6.1666 21.3949 6.38271 22.3134 6.97702C22.4755 7.03104 22.6376 7.03104 22.6916 6.97702Z" fill="#98A2B3"/>
<path opacity="0.9" d="M24.9607 11.4073C24.6906 11.1372 24.4205 10.867 24.1503 10.5969C23.3399 9.73245 22.4755 8.86802 21.3949 8.32774C20.1523 7.67941 18.8016 7.8415 17.4509 7.8415C15.668 7.8415 11.3998 7.8415 8.37429 7.8415L10.4273 10.5969C14.1012 10.5969 19.1258 10.5969 21.611 10.5969C22.7456 10.5969 23.7181 10.813 24.6366 11.4073C24.7446 11.4613 24.8527 11.4613 24.9607 11.4073Z" fill="#98A2B3"/>
<path d="M27.5 15.7293C27.2299 15.4592 26.9597 15.1891 26.6896 14.9189C25.8792 14.0545 25.0148 13.19 23.9342 12.6498C22.6916 12.0014 21.3409 12.1635 19.9902 12.1635C18.3153 12.1635 14.6415 12.1635 11.67 12.1635L13.723 14.9189C17.2888 14.9189 21.8271 14.9189 24.0963 14.9189C25.2309 14.9189 26.2034 15.135 27.1218 15.7293C27.2839 15.7834 27.392 15.8374 27.5 15.7293Z" fill="#98A2B3"/>
<path opacity="0.8" d="M4.75447 23.0231C5.02461 23.2932 5.29475 23.5633 5.56488 23.8335C6.3753 24.6979 7.23973 25.5623 8.32028 26.1026C9.56291 26.751 10.9136 26.5889 12.2643 26.5889H22.4755L20.4224 23.8335C16.6946 23.8335 10.8596 23.8335 8.15821 23.8335C7.02363 23.8335 6.05113 23.6174 5.13266 23.0231C4.97058 22.969 4.86253 22.969 4.75447 23.0231Z" fill="#98A2B3"/>
<path opacity="0.9" d="M2.48528 18.5929C2.75542 18.863 3.02556 19.1332 3.2957 19.4033C4.10611 20.2677 4.97054 21.1322 6.05109 21.6725C7.29373 22.3208 8.64442 22.1587 9.9951 22.1587H19.0717L17.0187 19.4033C13.3448 19.4033 8.32025 19.4033 5.83499 19.4033C4.70041 19.4033 3.72791 19.1872 2.80944 18.5929C2.70139 18.5389 2.59334 18.5389 2.48528 18.5929Z" fill="#98A2B3"/>
<path d="M0 14.2165C0.270138 14.4867 0.540275 14.7568 0.810413 15.027C1.62083 15.8914 2.48527 16.7558 3.56582 17.2961C4.80845 17.9445 6.15913 17.7824 7.50982 17.7824H15.8301L13.777 15.027C10.2112 15.027 5.67289 15.027 3.40374 15.027C2.26916 15.027 1.29666 14.8108 0.378191 14.2165C0.216108 14.1625 0.108055 14.1625 0 14.2165Z" fill="#98A2B3"/>
<path d="M33.7075 8.755V21.25H36.455V16.0875H41.6875V13.9525H36.455V11.065H42.4925V8.755H33.7075Z" fill="#98A2B3"/>
<path d="M49.3835 15.755H45.341C45.3527 15.58 45.3877 15.3817 45.446 15.16C45.516 14.9383 45.6269 14.7283 45.7785 14.53C45.9419 14.3317 46.1519 14.1683 46.4085 14.04C46.6769 13.9 47.0094 13.83 47.406 13.83C48.0127 13.83 48.4619 13.9933 48.7535 14.32C49.0569 14.6467 49.2669 15.125 49.3835 15.755ZM45.341 17.33H51.8685C51.9152 16.63 51.8569 15.9592 51.6935 15.3175C51.5302 14.6758 51.2619 14.1042 50.8885 13.6025C50.5269 13.1008 50.0602 12.7042 49.4885 12.4125C48.9169 12.1092 48.246 11.9575 47.476 11.9575C46.7877 11.9575 46.1577 12.08 45.586 12.325C45.026 12.57 44.5419 12.9083 44.1335 13.34C43.7252 13.76 43.4102 14.2617 43.1885 14.845C42.9669 15.4283 42.856 16.0583 42.856 16.735C42.856 17.435 42.961 18.0767 43.171 18.66C43.3927 19.2433 43.7019 19.745 44.0985 20.165C44.4952 20.585 44.9794 20.9117 45.551 21.145C46.1227 21.3667 46.7644 21.4775 47.476 21.4775C48.5027 21.4775 49.3777 21.2442 50.101 20.7775C50.8244 20.3108 51.361 19.535 51.711 18.45H49.5235C49.4419 18.73 49.2202 18.9983 48.8585 19.255C48.4969 19.5 48.0652 19.6225 47.5635 19.6225C46.8635 19.6225 46.3269 19.4417 45.9535 19.08C45.5802 18.7183 45.376 18.135 45.341 17.33Z" fill="#98A2B3"/>
<path d="M52.7124 14.985C52.7474 14.4017 52.8932 13.9175 53.1499 13.5325C53.4065 13.1475 53.7332 12.8383 54.1299 12.605C54.5265 12.3717 54.9699 12.2083 55.4599 12.115C55.9615 12.01 56.4632 11.9575 56.9649 11.9575C57.4199 11.9575 57.8807 11.9925 58.3474 12.0625C58.814 12.1208 59.2399 12.2433 59.6249 12.43C60.0099 12.6167 60.3249 12.8792 60.5699 13.2175C60.8149 13.5442 60.9374 13.9817 60.9374 14.53V19.2375C60.9374 19.6458 60.9607 20.0367 61.0074 20.41C61.054 20.7833 61.1357 21.0633 61.2524 21.25H58.7324C58.6857 21.11 58.6449 20.97 58.6099 20.83C58.5865 20.6783 58.569 20.5267 58.5574 20.375C58.1607 20.7833 57.694 21.0692 57.1574 21.2325C56.6207 21.3958 56.0724 21.4775 55.5124 21.4775C55.0807 21.4775 54.6782 21.425 54.3049 21.32C53.9315 21.215 53.6049 21.0517 53.3249 20.83C53.0449 20.6083 52.8232 20.3283 52.6599 19.99C52.5082 19.6517 52.4324 19.2492 52.4324 18.7825C52.4324 18.2692 52.5199 17.8492 52.6949 17.5225C52.8815 17.1842 53.1149 16.9158 53.3949 16.7175C53.6865 16.5192 54.0132 16.3733 54.3749 16.28C54.7482 16.175 55.1215 16.0933 55.4949 16.035C55.8682 15.9767 56.2357 15.93 56.5974 15.895C56.959 15.86 57.2799 15.8075 57.5599 15.7375C57.8399 15.6675 58.0615 15.5683 58.2249 15.44C58.3882 15.3 58.464 15.1017 58.4524 14.845C58.4524 14.5767 58.4057 14.3667 58.3124 14.215C58.2307 14.0517 58.114 13.9292 57.9624 13.8475C57.8224 13.7542 57.6532 13.6958 57.4549 13.6725C57.2682 13.6375 57.064 13.62 56.8424 13.62C56.3524 13.62 55.9674 13.725 55.6874 13.935C55.4074 14.145 55.244 14.495 55.1974 14.985H52.7124ZM58.4524 16.8225C58.3474 16.9158 58.2132 16.9917 58.0499 17.05C57.8982 17.0967 57.729 17.1375 57.5424 17.1725C57.3674 17.2075 57.1807 17.2367 56.9824 17.26C56.784 17.2833 56.5857 17.3125 56.3874 17.3475C56.2007 17.3825 56.014 17.4292 55.8274 17.4875C55.6524 17.5458 55.4949 17.6275 55.3549 17.7325C55.2265 17.8258 55.1215 17.9483 55.0399 18.1C54.9582 18.2517 54.9174 18.4442 54.9174 18.6775C54.9174 18.8992 54.9582 19.0858 55.0399 19.2375C55.1215 19.3892 55.2324 19.5117 55.3724 19.605C55.5124 19.6867 55.6757 19.745 55.8624 19.78C56.049 19.815 56.2415 19.8325 56.4399 19.8325C56.9299 19.8325 57.309 19.7508 57.5774 19.5875C57.8457 19.4242 58.044 19.2317 58.1724 19.01C58.3007 18.7767 58.3765 18.5433 58.3999 18.31C58.4349 18.0767 58.4524 17.89 58.4524 17.75V16.8225Z" fill="#98A2B3"/>
<path d="M65.4912 12.2025V9.49H63.0062V12.2025H61.5012V13.865H63.0062V19.2025C63.0062 19.6575 63.082 20.025 63.2337 20.305C63.3854 20.585 63.5895 20.8008 63.8462 20.9525C64.1145 21.1042 64.4179 21.2033 64.7562 21.25C65.1062 21.3083 65.4737 21.3375 65.8587 21.3375C66.1037 21.3375 66.3545 21.3317 66.6112 21.32C66.8679 21.3083 67.1012 21.285 67.3112 21.25V19.325C67.1945 19.3483 67.072 19.3658 66.9437 19.3775C66.8154 19.3892 66.6812 19.395 66.5412 19.395C66.1212 19.395 65.8412 19.325 65.7012 19.185C65.5612 19.045 65.4912 18.765 65.4912 18.345V13.865H67.3112V12.2025H65.4912Z" fill="#98A2B3"/>
<path d="M67.9685 8.755V21.25H70.4535V16.5075C70.4535 15.5858 70.6052 14.9267 70.9085 14.53C71.2119 14.1217 71.7019 13.9175 72.3785 13.9175C72.9735 13.9175 73.3877 14.1042 73.621 14.4775C73.8544 14.8392 73.971 15.3933 73.971 16.14V21.25H76.456V15.685C76.456 15.125 76.4035 14.6175 76.2985 14.1625C76.2052 13.6958 76.036 13.305 75.791 12.99C75.546 12.6633 75.2077 12.4125 74.776 12.2375C74.356 12.0508 73.8135 11.9575 73.1485 11.9575C72.6819 11.9575 72.2035 12.08 71.7135 12.325C71.2235 12.5583 70.821 12.9375 70.506 13.4625H70.4535V8.755H67.9685Z" fill="#98A2B3"/>
<path d="M83.9071 15.755H79.8646C79.8762 15.58 79.9112 15.3817 79.9696 15.16C80.0396 14.9383 80.1504 14.7283 80.3021 14.53C80.4654 14.3317 80.6754 14.1683 80.9321 14.04C81.2004 13.9 81.5329 13.83 81.9296 13.83C82.5362 13.83 82.9854 13.9933 83.2771 14.32C83.5804 14.6467 83.7904 15.125 83.9071 15.755ZM79.8646 17.33H86.3921C86.4387 16.63 86.3804 15.9592 86.2171 15.3175C86.0537 14.6758 85.7854 14.1042 85.4121 13.6025C85.0504 13.1008 84.5837 12.7042 84.0121 12.4125C83.4404 12.1092 82.7696 11.9575 81.9996 11.9575C81.3112 11.9575 80.6812 12.08 80.1096 12.325C79.5496 12.57 79.0654 12.9083 78.6571 13.34C78.2487 13.76 77.9337 14.2617 77.7121 14.845C77.4904 15.4283 77.3796 16.0583 77.3796 16.735C77.3796 17.435 77.4846 18.0767 77.6946 18.66C77.9162 19.2433 78.2254 19.745 78.6221 20.165C79.0187 20.585 79.5029 20.9117 80.0746 21.145C80.6462 21.3667 81.2879 21.4775 81.9996 21.4775C83.0262 21.4775 83.9012 21.2442 84.6246 20.7775C85.3479 20.3108 85.8846 19.535 86.2346 18.45H84.0471C83.9654 18.73 83.7437 18.9983 83.3821 19.255C83.0204 19.5 82.5887 19.6225 82.0871 19.6225C81.3871 19.6225 80.8504 19.4417 80.4771 19.08C80.1037 18.7183 79.8996 18.135 79.8646 17.33Z" fill="#98A2B3"/>
<path d="M87.3409 12.2025V21.25H89.8259V17.1725C89.8259 16.7642 89.8667 16.385 89.9484 16.035C90.0301 15.685 90.1642 15.3817 90.3509 15.125C90.5492 14.8567 90.8059 14.6467 91.1209 14.495C91.4359 14.3433 91.8209 14.2675 92.2759 14.2675C92.4276 14.2675 92.5851 14.2792 92.7484 14.3025C92.9117 14.3142 93.0517 14.3317 93.1684 14.355V12.045C92.9701 11.9867 92.7892 11.9575 92.6259 11.9575C92.3109 11.9575 92.0076 12.0042 91.7159 12.0975C91.4242 12.1908 91.1501 12.325 90.8934 12.5C90.6367 12.6633 90.4092 12.8675 90.2109 13.1125C90.0126 13.3458 89.8551 13.6025 89.7384 13.8825H89.7034V12.2025H87.3409Z" fill="#98A2B3"/>
<path d="M96.6277 18.94V11.065H98.5877C99.2643 11.065 99.8302 11.1642 100.285 11.3625C100.752 11.5492 101.125 11.8233 101.405 12.185C101.685 12.5467 101.884 12.9842 102 13.4975C102.128 13.9992 102.193 14.565 102.193 15.195C102.193 15.8833 102.105 16.4667 101.93 16.945C101.755 17.4233 101.522 17.8142 101.23 18.1175C100.938 18.4092 100.606 18.6192 100.233 18.7475C99.8593 18.8758 99.4743 18.94 99.0777 18.94H96.6277ZM93.8802 8.755V21.25H99.2702C100.227 21.25 101.055 21.0925 101.755 20.7775C102.467 20.4508 103.056 20.0075 103.523 19.4475C104.001 18.8875 104.357 18.2225 104.59 17.4525C104.823 16.6825 104.94 15.8425 104.94 14.9325C104.94 13.8942 104.794 12.99 104.503 12.22C104.223 11.45 103.826 10.8083 103.313 10.295C102.811 9.78167 102.21 9.39667 101.51 9.14001C100.822 8.88334 100.075 8.755 99.2702 8.755H93.8802Z" fill="#98A2B3"/>
<path d="M112.154 15.755H108.111C108.123 15.58 108.158 15.3817 108.216 15.16C108.286 14.9383 108.397 14.7283 108.549 14.53C108.712 14.3317 108.922 14.1683 109.179 14.04C109.447 13.9 109.78 13.83 110.176 13.83C110.783 13.83 111.232 13.9933 111.524 14.32C111.827 14.6467 112.037 15.125 112.154 15.755ZM108.111 17.33H114.639C114.686 16.63 114.627 15.9592 114.464 15.3175C114.301 14.6758 114.032 14.1042 113.659 13.6025C113.297 13.1008 112.831 12.7042 112.259 12.4125C111.687 12.1092 111.016 11.9575 110.246 11.9575C109.558 11.9575 108.928 12.08 108.356 12.325C107.796 12.57 107.312 12.9083 106.904 13.34C106.496 13.76 106.181 14.2617 105.959 14.845C105.737 15.4283 105.626 16.0583 105.626 16.735C105.626 17.435 105.731 18.0767 105.941 18.66C106.163 19.2433 106.472 19.745 106.869 20.165C107.266 20.585 107.75 20.9117 108.321 21.145C108.893 21.3667 109.535 21.4775 110.246 21.4775C111.273 21.4775 112.148 21.2442 112.871 20.7775C113.595 20.3108 114.131 19.535 114.481 18.45H112.294C112.212 18.73 111.991 18.9983 111.629 19.255C111.267 19.5 110.836 19.6225 110.334 19.6225C109.634 19.6225 109.097 19.4417 108.724 19.08C108.351 18.7183 108.146 18.135 108.111 17.33Z" fill="#98A2B3"/>
<path d="M120.593 21.25L123.655 12.2025H121.188L119.28 18.38H119.245L117.338 12.2025H114.73L117.828 21.25H120.593Z" fill="#98A2B3"/>
</g>
</svg>
