<svg width="56" height="56" viewBox="0 0 56 56" fill="none" xmlns="http://www.w3.org/2000/svg">
<rect x="4" y="4" width="48" height="48" rx="24" fill="#FFD6B0"/>
<rect x="4" y="4" width="48" height="48" rx="24" stroke="#FFF6EE" stroke-width="8"/>
<path d="M37.9199 22.62C37.8185 22.3757 37.6243 22.1815 37.3799 22.08C37.2597 22.0288 37.1306 22.0016 36.9999 22H31.9999C31.7347 22 31.4804 22.1054 31.2928 22.2929C31.1053 22.4804 30.9999 22.7348 30.9999 23C30.9999 23.2652 31.1053 23.5196 31.2928 23.7071C31.4804 23.8946 31.7347 24 31.9999 24H34.5899L28.9999 29.59L25.7099 26.29C25.617 26.1963 25.5064 26.1219 25.3845 26.0711C25.2627 26.0203 25.132 25.9942 24.9999 25.9942C24.8679 25.9942 24.7372 26.0203 24.6154 26.0711C24.4935 26.1219 24.3829 26.1963 24.2899 26.29L18.2899 32.29C18.1962 32.383 18.1218 32.4936 18.071 32.6154C18.0203 32.7373 17.9941 32.868 17.9941 33C17.9941 33.132 18.0203 33.2627 18.071 33.3846C18.1218 33.5064 18.1962 33.617 18.2899 33.71C18.3829 33.8037 18.4935 33.8781 18.6154 33.9289C18.7372 33.9797 18.8679 34.0058 18.9999 34.0058C19.132 34.0058 19.2627 33.9797 19.3845 33.9289C19.5064 33.8781 19.617 33.8037 19.7099 33.71L24.9999 28.41L28.2899 31.71C28.3829 31.8037 28.4935 31.8781 28.6154 31.9289C28.7372 31.9797 28.8679 32.0058 28.9999 32.0058C29.132 32.0058 29.2627 31.9797 29.3845 31.9289C29.5064 31.8781 29.617 31.8037 29.7099 31.71L35.9999 25.41V28C35.9999 28.2652 36.1053 28.5196 36.2928 28.7071C36.4804 28.8946 36.7347 29 36.9999 29C37.2652 29 37.5195 28.8946 37.707 28.7071C37.8946 28.5196 37.9999 28.2652 37.9999 28V23C37.9984 22.8693 37.9712 22.7402 37.9199 22.62Z" fill="#FF7A00"/>
</svg>
