<svg width="124" height="30" viewBox="0 0 124 30" fill="none" xmlns="http://www.w3.org/2000/svg">
<g opacity="0.9">
<path d="M19.5181 1.25H8.98194L0.5 9.73192V20.2681L8.98194 28.75H19.5181L28 20.2681V9.73192L19.5181 1.25ZM10.4398 20.4006L5.00604 14.9669L10.4398 9.53313C12.494 7.47892 15.8735 7.47892 17.9277 9.53313L23.3614 14.9669L17.9277 20.4006C15.8735 22.4548 12.5602 22.4548 10.4398 20.4006Z" fill="#98A2B3"/>
<path d="M40.0875 21.4C41.775 21.4 43.1625 20.5375 43.5938 19.2437V21.25H46.0875V16.1875C46.0875 15.0437 45.1875 14.0687 43.9688 14.0687H40.4063V16.1875H42.9375C43.2563 16.1875 43.4625 16.3937 43.4625 16.7125C43.4625 17.9312 41.85 19.1125 40.2188 19.1125C38.0438 19.1125 36.3188 17.4062 36.3188 14.6875C36.3188 11.9687 38.0438 10.3937 40.275 10.3937C41.9625 10.3937 43.125 11.3125 43.3313 12.7187H46.125C45.9563 9.90623 43.5938 7.97498 40.2938 7.97498C36.825 7.97498 33.6375 10.2062 33.6375 14.6875C33.6375 19.1687 36.7313 21.4 40.0875 21.4Z" fill="#98A2B3"/>
<path d="M47.158 21.25H49.7643V7.69373H47.158V21.25Z" fill="#98A2B3"/>
<path d="M55.3862 21.4C58.2924 21.4 60.3737 19.3375 60.3737 16.525C60.3737 13.7125 58.2924 11.65 55.3862 11.65C52.4799 11.65 50.3987 13.7125 50.3987 16.525C50.3987 19.3375 52.4799 21.4 55.3862 21.4ZM55.3862 19.15C53.9799 19.15 53.0237 18.0812 53.0237 16.525C53.0237 14.95 53.9799 13.8812 55.3862 13.8812C56.7924 13.8812 57.7487 14.95 57.7487 16.525C57.7487 18.0812 56.7924 19.15 55.3862 19.15Z" fill="#98A2B3"/>
<path d="M66.2055 21.4C68.9993 21.4 70.668 19.4687 70.668 16.525C70.668 13.5812 68.9993 11.65 66.243 11.65C65.0618 11.65 64.143 12.1 63.618 12.7937V7.69373H61.0118V21.25H63.618V20.2187C64.143 20.95 65.118 21.4 66.2055 21.4ZM65.793 19.15C64.3868 19.15 63.468 18.1 63.468 16.525C63.468 14.9312 64.3868 13.8812 65.793 13.8812C67.1618 13.8812 68.0993 14.9312 68.0993 16.525C68.0993 18.1 67.1618 19.15 65.793 19.15Z" fill="#98A2B3"/>
<path d="M75.0308 11.65C72.4433 11.65 70.9058 13.1687 70.7933 15.0625H73.1183C73.1558 14.275 73.737 13.5625 74.8808 13.5625C75.9495 13.5625 76.5683 14.1062 76.5683 14.8937C76.5683 15.2875 76.3245 15.5875 75.8558 15.5875H74.262C72.1995 15.5875 70.812 16.7125 70.812 18.5687C70.812 20.1812 72.0683 21.4 73.9058 21.4C75.1995 21.4 76.2495 20.8187 76.5683 19.9375V21.25H79.1558V15.175C79.1558 13.0375 77.412 11.65 75.0308 11.65ZM74.562 19.5062C73.8308 19.5062 73.3058 19.075 73.3058 18.4562C73.3058 17.725 73.8683 17.2375 74.6558 17.2375H76.5683V17.3687C76.5683 18.5687 75.837 19.5062 74.562 19.5062Z" fill="#98A2B3"/>
<path d="M80.1573 21.25H82.7635V7.69373H80.1573V21.25Z" fill="#98A2B3"/>
<path d="M84.148 21.25H89.5105C92.2855 21.25 94.198 19.825 94.198 17.3312C94.198 15.6062 93.1855 14.5562 91.9855 14.0875C92.7542 13.675 93.523 12.7375 93.523 11.5C93.523 9.30623 91.7417 8.12498 89.3605 8.12498H84.148V21.25ZM86.923 13.1312V10.3562H89.098C90.3542 10.3562 90.9167 10.8625 90.9167 11.7437C90.9167 12.625 90.3542 13.1312 89.1542 13.1312H86.923ZM86.923 18.8125V15.5125H89.2667C90.823 15.5125 91.5167 16.1125 91.5167 17.1812C91.5167 18.25 90.823 18.8125 89.2667 18.8125H86.923Z" fill="#98A2B3"/>
<path d="M98.7319 11.65C96.1445 11.65 94.6069 13.1687 94.4944 15.0625H96.8194C96.8569 14.275 97.4382 13.5625 98.5819 13.5625C99.6507 13.5625 100.269 14.1062 100.269 14.8937C100.269 15.2875 100.026 15.5875 99.5569 15.5875H97.9632C95.9007 15.5875 94.5132 16.7125 94.5132 18.5687C94.5132 20.1812 95.7694 21.4 97.6069 21.4C98.9007 21.4 99.9507 20.8187 100.269 19.9375V21.25H102.857V15.175C102.857 13.0375 101.113 11.65 98.7319 11.65ZM98.2632 19.5062C97.5319 19.5062 97.007 19.075 97.007 18.4562C97.007 17.725 97.5694 17.2375 98.3569 17.2375H100.269V17.3687C100.269 18.5687 99.5382 19.5062 98.2632 19.5062Z" fill="#98A2B3"/>
<path d="M103.708 21.25H106.333V16.075C106.333 14.8562 107.14 13.975 108.283 13.975C109.371 13.975 110.102 14.8 110.102 15.9437V21.25H112.727V15.3625C112.727 13.1875 111.34 11.65 109.202 11.65C107.908 11.65 106.858 12.1937 106.333 13.1125V11.8H103.708V21.25Z" fill="#98A2B3"/>
<path d="M120.209 21.25H123.359L119.29 15.5125L123.059 11.8H119.759L116.477 15.025V7.69373H113.852V21.25H116.477V18.2875L117.527 17.2562L120.209 21.25Z" fill="#98A2B3"/>
</g>
</svg>
