<svg width="11" height="11" viewBox="0 0 11 11" fill="none" xmlns="http://www.w3.org/2000/svg">
<path d="M0.275 8.25C0.202067 8.25001 0.132124 8.27899 0.0805533 8.33056C0.0289822 8.38213 6.56304e-06 8.45207 0 8.525V10.175C6.56304e-06 10.2479 0.0289822 10.3179 0.0805533 10.3695C0.132124 10.421 0.202067 10.45 0.275 10.45H6.875C6.94793 10.45 7.01788 10.421 7.06945 10.3695C7.12102 10.3179 7.14999 10.2479 7.15 10.175V8.525C7.14999 8.45207 7.12102 8.38213 7.06945 8.33056C7.01788 8.27899 6.94793 8.25001 6.875 8.25H0.275Z" fill="#666666"/>
<path d="M0.275 5.5C0.202067 5.50001 0.132124 5.52899 0.0805533 5.58056C0.0289822 5.63213 6.56304e-06 5.70207 0 5.775V7.425C6.56304e-06 7.49793 0.0289822 7.56788 0.0805533 7.61945C0.132124 7.67102 0.202067 7.69999 0.275 7.7H6.875C6.94793 7.69999 7.01788 7.67102 7.06945 7.61945C7.12102 7.56788 7.14999 7.49793 7.15 7.425V5.775C7.14999 5.70207 7.12102 5.63213 7.06945 5.58056C7.01788 5.52899 6.94793 5.50001 6.875 5.5H0.275Z" fill="#666666"/>
<path d="M9.34996 2.75C9.30332 2.75004 9.25745 2.76194 9.21667 2.78458C9.17589 2.80723 9.14154 2.83987 9.11685 2.87944L7.74185 5.07944C7.7159 5.12106 7.70155 5.16887 7.70029 5.2179C7.69902 5.26693 7.7109 5.3154 7.73468 5.3583C7.75845 5.4012 7.79327 5.43697 7.83552 5.46188C7.87777 5.4868 7.92591 5.49995 7.97496 5.5H8.52496V10.175C8.52497 10.2479 8.55394 10.3179 8.60551 10.3695C8.65708 10.421 8.72703 10.45 8.79996 10.45H9.89996C9.97289 10.45 10.0428 10.421 10.0944 10.3695C10.146 10.3179 10.175 10.2479 10.175 10.175V5.5H10.725C10.774 5.49995 10.8222 5.4868 10.8644 5.46188C10.9066 5.43697 10.9415 5.4012 10.9652 5.3583C10.989 5.3154 11.0009 5.26693 10.9996 5.2179C10.9984 5.16887 10.984 5.12106 10.9581 5.07944L9.58307 2.87944C9.55838 2.83987 9.52403 2.80723 9.48325 2.78458C9.44247 2.76194 9.3966 2.75004 9.34996 2.75Z" fill="#666666"/>
<path d="M0.275 2.75C0.202067 2.75001 0.132124 2.77899 0.0805533 2.83056C0.0289822 2.88213 6.56304e-06 2.95207 0 3.025V4.675C6.56304e-06 4.74793 0.0289822 4.81788 0.0805533 4.86945C0.132124 4.92102 0.202067 4.94999 0.275 4.95H6.875C6.94793 4.94999 7.01788 4.92102 7.06945 4.86945C7.12102 4.81788 7.14999 4.74793 7.15 4.675V3.025C7.14999 2.95207 7.12102 2.88213 7.06945 2.83056C7.01788 2.77899 6.94793 2.75001 6.875 2.75H0.275Z" fill="#666666"/>
<path d="M0.275 0C0.202067 6.56304e-06 0.132124 0.0289869 0.0805533 0.080558C0.0289822 0.132129 6.56304e-06 0.202067 0 0.275V1.925C6.56304e-06 1.99793 0.0289822 2.06788 0.0805533 2.11945C0.132124 2.17102 0.202067 2.19999 0.275 2.2H10.725C10.7979 2.19999 10.8679 2.17102 10.9194 2.11945C10.971 2.06788 11 1.99793 11 1.925V0.275C11 0.202067 10.971 0.132129 10.9194 0.080558C10.8679 0.0289869 10.7979 6.56304e-06 10.725 0H0.275Z" fill="#666666"/>
</svg>
