<svg width="20" height="20" viewBox="0 0 20 20" fill="none" xmlns="http://www.w3.org/2000/svg">
<path d="M2.93663 11.0287C3.02256 11.1287 3.01241 11.2807 2.91475 11.3687C2.8171 11.4567 2.66866 11.4463 2.58272 11.3463C1.88119 10.5224 1.23901 9.64321 0.771071 8.73281C0.296869 7.80568 0 6.84413 0 5.86826C0 4.54034 0.410145 3.31478 1.10074 2.32934C1.80853 1.32061 2.8124 0.56306 3.97323 0.209393C5.25365 -0.18179 6.37554 0.00300957 7.34491 0.544568C8.42611 1.15012 9.30656 2.20207 9.99941 3.39315C10.715 2.16283 11.6244 1.09565 12.7361 0.501358C13.7361 -0.0346097 14.8914 -0.185005 16.2056 0.267778C17.3212 0.652551 18.2813 1.41331 18.9563 2.41087C19.6125 3.38201 20 4.5771 20 5.86828C20 7.21778 19.5156 8.46579 18.7852 9.61997C18.7758 9.63997 18.7641 9.65837 18.7501 9.67517C17.7477 11.2415 16.2993 12.6341 15.0088 13.8757C14.6682 14.2037 14.3385 14.5213 14.0362 14.8229L10.7887 17.8851C10.5645 18.0962 10.2817 18.201 9.99887 18.201C9.71684 18.201 9.43328 18.0954 9.21062 17.8851L8.57627 17.2867C8.48018 17.1971 8.47393 17.0435 8.56221 16.9451C8.6497 16.8483 8.7997 16.8403 8.89579 16.9315L9.53015 17.5291C9.66374 17.6555 9.83092 17.7171 9.99967 17.7171C10.1684 17.7171 10.3372 17.6547 10.47 17.5291L13.7121 14.4716C14.0222 14.1628 14.348 13.8484 14.6862 13.5237C15.8526 12.4005 17.1517 11.1494 18.1111 9.77281L16.5291 9.8224C16.4299 9.8328 16.3315 9.77761 16.2885 9.68001L15.5026 7.85934C15.4995 7.85214 15.4948 7.84494 15.4885 7.83854C15.4823 7.83134 15.4745 7.82574 15.4675 7.82334C15.4503 7.81614 15.4307 7.81694 15.4135 7.82414C15.3971 7.83054 15.3831 7.84414 15.376 7.86014L13.5425 12.2975C13.5222 12.3582 13.4792 12.4102 13.4175 12.439C13.298 12.4942 13.1589 12.439 13.1058 12.3183L10.4645 6.31145C10.4614 6.30345 10.4567 6.29626 10.4512 6.29066C10.445 6.28426 10.438 6.27946 10.4301 6.27626C10.413 6.26826 10.395 6.26906 10.3778 6.27546C10.3614 6.28186 10.3473 6.29546 10.3395 6.31145L8.93175 9.52005C8.89503 9.60244 8.81535 9.66164 8.72082 9.66244L4.29918 9.73364C4.17028 9.73604 4.06325 9.62884 4.06091 9.49686C4.05856 9.36327 4.16169 9.25368 4.29214 9.25208L8.56298 9.18408L9.90903 6.11556C9.97075 5.97637 10.0809 5.87478 10.2098 5.82438C10.3379 5.77478 10.4856 5.77478 10.6215 5.83718C10.6832 5.86518 10.7379 5.90437 10.7832 5.94997C10.8309 5.99877 10.8684 6.05476 10.8942 6.11476L13.3145 11.6184L14.9433 7.67626C15.0011 7.53466 15.1089 7.43147 15.2371 7.37868C15.3644 7.32508 15.512 7.32189 15.6488 7.38188C15.7144 7.40988 15.7706 7.44908 15.8183 7.49627C15.8667 7.54587 15.9058 7.60347 15.9331 7.66826L16.655 9.33936L18.4338 9.28256C19.0932 8.21784 19.5252 7.08029 19.5252 5.87082C19.5252 4.6797 19.1697 3.57967 18.5658 2.687C17.9479 1.77267 17.0713 1.0783 16.0535 0.726337C14.8739 0.319959 13.8412 0.453562 12.952 0.928724C11.8646 1.5111 10.9763 2.60142 10.2833 3.85103C10.2544 3.90462 10.213 3.94702 10.163 3.97582C10.1122 4.00542 10.0568 4.02222 9.9974 4.02222C9.93881 4.02222 9.88335 4.00542 9.83257 3.97662C9.79038 3.95102 9.75366 3.91582 9.72554 3.87183L9.71226 3.85023C9.03962 2.6399 8.17715 1.56317 7.11695 0.969699C6.25371 0.486526 5.25218 0.323352 4.10526 0.672923H4.10448C3.04514 0.995298 2.12878 1.68725 1.48038 2.6128C0.846024 3.51675 0.471038 4.64547 0.471038 5.86932C0.471038 6.76127 0.746028 7.6484 1.18663 8.50922C1.63583 9.38516 2.25613 10.2339 2.93579 11.0306L2.93663 11.0287ZM4.96695 18.1754V16.5851H6.52001C6.70595 16.5851 6.85828 16.4299 6.85828 16.2387V15.3467C6.85828 15.1564 6.70594 15.0004 6.52001 15.0004H4.96695V13.4101C4.96695 13.2197 4.81461 13.0637 4.62868 13.0637H3.75762C3.57091 13.0637 3.41935 13.2197 3.41935 13.4101V15.0004H1.86629C1.68036 15.0004 1.52802 15.1564 1.52802 15.3467V16.2387C1.52802 16.4299 1.68036 16.5851 1.86629 16.5851H3.41935V18.1754C3.41935 18.3657 3.57091 18.5217 3.75762 18.5217H4.62868C4.81462 18.5217 4.96695 18.3657 4.96695 18.1754ZM4.19276 11.5853C6.46228 11.5853 8.30201 13.4692 8.30201 15.7931C8.30201 18.1162 6.46224 20 4.19276 20C1.92404 20 0.0843129 18.1161 0.0843129 15.7931C0.0843129 13.4692 1.92409 11.5853 4.19276 11.5853Z" fill="#FF7A00"/>
</svg>
