<svg width="26" height="19" viewBox="0 0 26 19" fill="none" xmlns="http://www.w3.org/2000/svg">
<path d="M25.4624 5.8673L13.4624 0.00729573C13.426 0.00149781 13.3888 0.00149781 13.3524 0.00729573H13.2424C13.166 -0.00243191 13.0888 -0.00243191 13.0124 0.00729573H12.7724H12.6724C12.636 0.00149781 12.5988 0.00149781 12.5624 0.00729573L0.562408 5.8673C0.444054 5.92489 0.338236 6.00529 0.251022 6.10387C0.163808 6.20246 0.0969146 6.31729 0.054178 6.44178C0.0114414 6.56628 -0.00629752 6.69798 0.00197888 6.82935C0.0102553 6.96071 0.044384 7.08915 0.102408 7.2073C0.184872 7.3756 0.312974 7.51734 0.472105 7.61635C0.631235 7.71537 0.814988 7.76767 1.00241 7.7673C1.15478 7.76792 1.30528 7.73372 1.44241 7.6673L4.02241 6.4073V17.7773C4.02241 18.0425 4.12777 18.2969 4.3153 18.4844C4.50284 18.6719 4.75719 18.7773 5.02241 18.7773H21.0224C21.2876 18.7773 21.542 18.6719 21.7295 18.4844C21.9171 18.2969 22.0224 18.0425 22.0224 17.7773V6.4273L24.5624 7.6673C24.6995 7.73372 24.85 7.76792 25.0024 7.7673C25.1898 7.76767 25.3736 7.71537 25.5327 7.61635C25.6918 7.51734 25.8199 7.3756 25.9024 7.2073C26.021 6.97113 26.0413 6.69761 25.9589 6.44652C25.8764 6.19543 25.6979 5.98718 25.4624 5.8673ZM20.0224 16.7773H6.02241V5.4273L13.0224 2.0073L20.0224 5.4473V16.7773Z" fill="#FF7A00"/>
</svg>
