<svg width="11" height="11" viewBox="0 0 11 11" fill="none" xmlns="http://www.w3.org/2000/svg">
<path d="M10.0998 0H2.43383C2.31215 0 2.20264 0.0973452 2.20264 0.231195C2.20264 0.365044 2.29998 0.462389 2.43383 0.462389H10.1119C10.3431 0.462389 10.5378 0.644912 10.5378 0.888274V8.56637C10.5378 8.68806 10.6352 8.79757 10.769 8.79757C10.8907 8.79757 11.0002 8.70022 11.0002 8.56637V0.876106C10.9759 0.389381 10.5865 0 10.0998 0Z" fill="#ADADAD"/>
<path d="M9.32095 0.778809H1.65502C1.53334 0.778809 1.42383 0.876154 1.42383 1.01C1.42383 1.13168 1.52117 1.2412 1.65502 1.2412H9.33312C9.56432 1.2412 9.75901 1.42372 9.75901 1.66708V9.34518C9.75901 9.46686 9.85635 9.57638 9.9902 9.57638C10.1119 9.57638 10.2214 9.47903 10.2214 9.34518V1.65491C10.1971 1.16819 9.80768 0.778809 9.32095 0.778809Z" fill="#ADADAD"/>
<path d="M8.54204 1.55762H0.876106C0.389381 1.55762 0 1.947 0 2.43372V10.1118C0 10.5985 0.389381 10.9879 0.876106 10.9879H8.5542C9.04093 10.9879 9.43031 10.5985 9.43031 10.1118V2.43372C9.41814 1.947 9.02876 1.55762 8.54204 1.55762ZM7.77544 2.90828H6.99668C6.875 2.90828 6.76549 2.81094 6.76549 2.67709C6.76549 2.54324 6.86283 2.44589 6.99668 2.44589H7.77544C8.18916 2.44589 8.5177 2.77443 8.5177 3.18815V3.96691C8.5177 4.08859 8.42036 4.1981 8.28651 4.1981C8.16482 4.1981 8.05531 4.10076 8.05531 3.96691V3.18815C8.06748 3.04213 7.93363 2.90828 7.77544 2.90828Z" fill="#ADADAD"/>
</svg>
