<svg width="15" height="15" viewBox="0 0 15 15" fill="none" xmlns="http://www.w3.org/2000/svg">
<path d="M11.2945 0H3.7057C2.72321 0.00105467 1.78127 0.391814 1.08654 1.08654C0.391814 1.78127 0.00105467 2.72321 0 3.7057V11.2943C0.00105467 12.2768 0.391814 13.2187 1.08654 13.9135C1.78127 14.6082 2.72321 14.9989 3.7057 15H11.2945C12.277 14.9989 13.2189 14.6082 13.9136 13.9134C14.6083 13.2187 14.999 12.2768 15 11.2943V3.7057C14.999 2.72323 14.6083 1.78129 13.9136 1.08655C13.2189 0.391822 12.277 0.00105478 11.2945 0ZM13.5762 11.2943C13.5755 11.8993 13.3349 12.4793 12.9072 12.9071C12.4794 13.3349 11.8995 13.5756 11.2945 13.5764H3.7057C3.1007 13.5757 2.52069 13.335 2.09291 12.9072C1.66513 12.4793 1.42451 11.8993 1.42383 11.2943V3.7057C1.42451 3.1007 1.66513 2.52067 2.09291 2.09284C2.52069 1.66502 3.1007 1.42434 3.7057 1.42359H11.2945C11.8995 1.4244 12.4794 1.66511 12.9072 2.09293C13.3349 2.52074 13.5755 3.10074 13.5762 3.7057V11.2943Z" fill="black"/>
<path d="M7.49938 3.92798C6.79294 3.92802 6.10237 4.13755 5.51501 4.53006C4.92765 4.92257 4.46987 5.48044 4.19956 6.13312C3.92925 6.7858 3.85855 7.50398 3.9964 8.19684C4.13425 8.8897 4.47445 9.52612 4.974 10.0256C5.47354 10.5251 6.10999 10.8653 6.80286 11.0031C7.49573 11.1409 8.2139 11.0702 8.86656 10.7998C9.51922 10.5295 10.0771 10.0716 10.4695 9.48426C10.862 8.89687 11.0715 8.20629 11.0715 7.49985C11.0704 6.55282 10.6937 5.64487 10.0241 4.97524C9.35438 4.3056 8.44641 3.92897 7.49938 3.92798ZM7.49938 9.64814C7.0745 9.64809 6.65917 9.52206 6.30592 9.28597C5.95267 9.04989 5.67735 8.71435 5.51479 8.3218C5.35223 7.92925 5.30972 7.49731 5.39264 7.0806C5.47556 6.66389 5.68018 6.28113 5.98063 5.98071C6.28108 5.68029 6.66387 5.47571 7.08059 5.39283C7.49731 5.30996 7.92924 5.35252 8.32178 5.51512C8.71431 5.67773 9.04981 5.95308 9.28586 6.30636C9.5219 6.65963 9.64789 7.07497 9.64789 7.49985C9.64733 8.06948 9.42079 8.61562 9.01798 9.01838C8.61516 9.42115 8.06901 9.64764 7.49938 9.64814Z" fill="black"/>
<path d="M11.2193 2.82861C11.0307 2.82857 10.8464 2.88445 10.6895 2.98918C10.5327 3.09392 10.4105 3.24281 10.3383 3.41702C10.2661 3.59124 10.2472 3.78295 10.2839 3.96791C10.3207 4.15288 10.4115 4.32279 10.5448 4.45615C10.6781 4.58951 10.848 4.68034 11.033 4.71715C11.2179 4.75396 11.4096 4.73509 11.5839 4.66293C11.7581 4.59078 11.907 4.46857 12.0118 4.31178C12.1166 4.15498 12.1725 3.97063 12.1725 3.78205C12.1725 3.52922 12.0721 3.28675 11.8933 3.10795C11.7146 2.92915 11.4721 2.82868 11.2193 2.82861Z" fill="black"/>
</svg>
