<?xml version="1.0" encoding="utf-8"?>
<!-- Uploaded to: SVG Repo, www.svgrepo.com, Generator: SVG Repo Mixer Tools -->
<svg fill="#000000" version="1.1" id="Layer_1" xmlns="http://www.w3.org/2000/svg" xmlns:xlink="http://www.w3.org/1999/xlink" 
	 width="800px" height="800px" viewBox="0 0 256 213" enable-background="new 0 0 256 213" xml:space="preserve">
<path d="M228.849,40H163V16.275C163,7.513,155.222,2,145.649,2c0,0-36.497,0-36.298,0C99.978,2,92,7.513,92,16.275V41H27.165
	C14.138,41,2,52.056,2,66.666c0,0.395,0,117.569,0,117.569C2,200.523,14.171,211,27,211h201.948c12.772,0,25.052-9.589,25.052-26.07
	c0,0,0-118.461,0-118.961C253.902,51.187,241.818,40,228.849,40z M105,16h45v25h-45V16z M127.922,177.35
	c-28.891,0-52.345-23.454-52.345-52.345c0-29.046,23.299-52.655,52.345-52.655s52.5,23.454,52.5,52.5
	C180.422,153.896,156.813,177.35,127.922,177.35z M147.493,136.603c0,8.232-5.022,14.497-15.636,16.879v8.232h-7.249v-7.973
	c-6.265,0-12.581-1.657-15.636-3.365l2.64-10.614c3.365,1.657,8.646,3.624,14.238,3.624c6.006,0,8.957-2.641,8.957-6.265
	s-2.848-5.126-9.785-7.818c-9.63-3.365-15.636-8.232-15.636-16.879c0-7.973,5.281-14.238,14.963-16.206v-8.646h7.249v8.232
	c6.006,0,10.355,1.243,13.565,2.951l-2.951,10.355c-2.382-0.984-6.265-2.641-11.598-2.641c-5.333,0-8.232,2.641-8.232,5.281
	c0,3.624,3.365,5.022,10.614,7.973C142.885,123.349,147.493,128.371,147.493,136.603z"/>
</svg>