<svg width="105" height="30" viewBox="0 0 105 30" fill="none" xmlns="http://www.w3.org/2000/svg">
<g opacity="0.9">
<path fill-rule="evenodd" clip-rule="evenodd" d="M12.9784 2.15489C12.6628 2.08997 12.3372 2.08997 12.0216 2.15489C11.6567 2.22993 11.3306 2.4126 11.0713 2.55782L11.0006 2.59729L2.21346 7.47906C2.18916 7.49256 2.16413 7.50634 2.13848 7.52047C1.86402 7.67164 1.51893 7.86172 1.25392 8.14929C1.0248 8.39792 0.851404 8.69261 0.745335 9.01364C0.62265 9.38496 0.624085 9.77893 0.625227 10.0923C0.625334 10.1216 0.625438 10.1501 0.625438 10.1779V19.8166C0.625438 19.8444 0.625334 19.873 0.625227 19.9023C0.624085 20.2156 0.62265 20.6096 0.745335 20.9809C0.851405 21.3019 1.0248 21.5966 1.25392 21.8453C1.51893 22.1328 1.86402 22.3229 2.13848 22.4741C2.16413 22.4882 2.18916 22.502 2.21346 22.5155L11.0006 27.3973L11.0713 27.4367C11.3306 27.582 11.6567 27.7646 12.0216 27.8397C12.3372 27.9046 12.6628 27.9046 12.9784 27.8397C13.3433 27.7646 13.6694 27.582 13.9287 27.4367L13.9994 27.3973L22.7865 22.5155C22.7973 22.5095 22.8082 22.5035 22.8192 22.4974C22.8331 22.4897 22.8472 22.482 22.8615 22.4741C23.136 22.3229 23.4811 22.1328 23.7461 21.8453C23.9752 21.5966 24.1486 21.3019 24.2547 20.9809C24.3773 20.6096 24.3759 20.2156 24.3748 19.9023C24.3747 19.873 24.3746 19.8444 24.3746 19.8166V10.1779C24.3746 10.1501 24.3747 10.1216 24.3748 10.0923C24.3759 9.77893 24.3773 9.38496 24.2547 9.01364C24.1486 8.69261 23.9752 8.39792 23.7461 8.14929C23.4811 7.86171 23.136 7.67164 22.8615 7.52046L22.8605 7.51993C22.8352 7.50599 22.8105 7.49238 22.7865 7.47906L13.9994 2.59729L13.9287 2.55781C13.6694 2.41259 13.3433 2.22993 12.9784 2.15489ZM12.154 4.67334C12.3339 4.57337 12.4258 4.52286 12.4943 4.48981L12.5 4.48709L12.5057 4.4898C12.5742 4.52286 12.6661 4.57337 12.846 4.67334L20.7419 9.05996L12.5 13.6388L4.25803 9.05999L12.154 4.67334ZM3.00035 11.0781L11.3125 15.6959L11.3125 24.8537L3.36682 20.4394C3.17688 20.3339 3.07991 20.2795 3.01187 20.2361L3.00612 20.2325L3.00569 20.2256C3.00084 20.1451 3.00035 20.0339 3.00035 19.8166V11.0781Z" fill="#98A2B3"/>
<path d="M35.1819 18.9658H38.9619V21.1933H32.2963V9.34702H35.1819V18.9658Z" fill="#98A2B3"/>
<path d="M41.6208 10.7983C41.1145 10.7983 40.6983 10.652 40.372 10.3595C40.057 10.0558 39.8995 9.68452 39.8995 9.24577C39.8995 8.79577 40.057 8.42452 40.372 8.13202C40.6983 7.82827 41.1145 7.67639 41.6208 7.67639C42.1158 7.67639 42.5208 7.82827 42.8358 8.13202C43.162 8.42452 43.3252 8.79577 43.3252 9.24577C43.3252 9.68452 43.162 10.0558 42.8358 10.3595C42.5208 10.652 42.1158 10.7983 41.6208 10.7983ZM43.0552 11.777V21.1933H40.1695V11.777H43.0552Z" fill="#98A2B3"/>
<path d="M48.5551 11.642C49.2188 11.642 49.7982 11.777 50.2932 12.047C50.7995 12.317 51.1876 12.6714 51.4576 13.1101V11.777H54.3432V21.1764C54.3432 22.0426 54.1688 22.8245 53.8201 23.522C53.4826 24.2308 52.9595 24.7933 52.2507 25.2095C51.5532 25.6258 50.6813 25.8339 49.6351 25.8339C48.2401 25.8339 47.1095 25.502 46.2432 24.8383C45.377 24.1858 44.882 23.297 44.7582 22.172H47.6101C47.7001 22.532 47.9138 22.8133 48.2513 23.0158C48.5888 23.2295 49.0051 23.3364 49.5001 23.3364C50.0963 23.3364 50.5688 23.162 50.9176 22.8133C51.2776 22.4758 51.4576 21.9301 51.4576 21.1764V19.8433C51.1763 20.282 50.7882 20.642 50.2932 20.9233C49.7982 21.1933 49.2188 21.3283 48.5551 21.3283C47.7788 21.3283 47.0757 21.1314 46.4457 20.7376C45.8157 20.3326 45.3151 19.7645 44.9438 19.0333C44.5838 18.2908 44.4038 17.4358 44.4038 16.4683C44.4038 15.5008 44.5838 14.6514 44.9438 13.9201C45.3151 13.1889 45.8157 12.6264 46.4457 12.2326C47.0757 11.8389 47.7788 11.642 48.5551 11.642ZM51.4576 16.4851C51.4576 15.7651 51.2551 15.197 50.8501 14.7808C50.4563 14.3645 49.9726 14.1564 49.3988 14.1564C48.8251 14.1564 48.3357 14.3645 47.9307 14.7808C47.537 15.1858 47.3401 15.7483 47.3401 16.4683C47.3401 17.1883 47.537 17.762 47.9307 18.1895C48.3357 18.6058 48.8251 18.8139 49.3988 18.8139C49.9726 18.8139 50.4563 18.6058 50.8501 18.1895C51.2551 17.7733 51.4576 17.2051 51.4576 16.4851Z" fill="#98A2B3"/>
<path d="M62.0502 11.6758C63.1302 11.6758 63.9965 12.0358 64.649 12.7558C65.3015 13.4645 65.6277 14.4433 65.6277 15.692V21.1933H62.759V16.0801C62.759 15.4501 62.5958 14.9608 62.2696 14.612C61.9433 14.2633 61.5046 14.0889 60.9533 14.0889C60.4021 14.0889 59.9633 14.2633 59.6371 14.612C59.3108 14.9608 59.1477 15.4501 59.1477 16.0801V21.1933H56.2621V8.70577H59.1477V13.0426C59.4402 12.6264 59.8396 12.2945 60.3458 12.047C60.8521 11.7995 61.4202 11.6758 62.0502 11.6758Z" fill="#98A2B3"/>
<path d="M72.7123 18.7464V21.1933H71.2442C70.1979 21.1933 69.3823 20.9401 68.7973 20.4339C68.2123 19.9164 67.9198 19.0783 67.9198 17.9195V14.1733H66.7723V11.777H67.9198V9.48202H70.8054V11.777H72.6954V14.1733H70.8054V17.9533C70.8054 18.2345 70.8729 18.437 71.0079 18.5608C71.1429 18.6845 71.3679 18.7464 71.6829 18.7464H72.7123Z" fill="#98A2B3"/>
<path d="M77.0365 13.1101C77.3065 12.6714 77.6947 12.317 78.2009 12.047C78.7072 11.777 79.2865 11.642 79.939 11.642C80.7153 11.642 81.4184 11.8389 82.0484 12.2326C82.6784 12.6264 83.1734 13.1889 83.5334 13.9201C83.9047 14.6514 84.0903 15.5008 84.0903 16.4683C84.0903 17.4358 83.9047 18.2908 83.5334 19.0333C83.1734 19.7645 82.6784 20.3326 82.0484 20.7376C81.4184 21.1314 80.7153 21.3283 79.939 21.3283C79.2753 21.3283 78.6959 21.1989 78.2009 20.9401C77.7059 20.6701 77.3178 20.3158 77.0365 19.877V21.1933H74.1509V8.70577H77.0365V13.1101ZM81.154 16.4683C81.154 15.7483 80.9515 15.1858 80.5465 14.7808C80.1528 14.3645 79.6634 14.1564 79.0784 14.1564C78.5047 14.1564 78.0153 14.3645 77.6103 14.7808C77.2165 15.197 77.0197 15.7651 77.0197 16.4851C77.0197 17.2051 77.2165 17.7733 77.6103 18.1895C78.0153 18.6058 78.5047 18.8139 79.0784 18.8139C79.6522 18.8139 80.1415 18.6058 80.5465 18.1895C80.9515 17.762 81.154 17.1883 81.154 16.4683Z" fill="#98A2B3"/>
<path d="M89.7216 21.3283C88.7991 21.3283 87.9666 21.1314 87.2241 20.7376C86.4929 20.3439 85.9135 19.7814 85.486 19.0501C85.0698 18.3189 84.8616 17.4639 84.8616 16.4851C84.8616 15.5176 85.0754 14.6683 85.5029 13.937C85.9304 13.1945 86.5154 12.6264 87.2579 12.2326C88.0004 11.8389 88.8329 11.642 89.7554 11.642C90.6779 11.642 91.5104 11.8389 92.2529 12.2326C92.9954 12.6264 93.5804 13.1945 94.0079 13.937C94.4354 14.6683 94.6491 15.5176 94.6491 16.4851C94.6491 17.4526 94.4298 18.3076 93.991 19.0501C93.5635 19.7814 92.9729 20.3439 92.2191 20.7376C91.4766 21.1314 90.6441 21.3283 89.7216 21.3283ZM89.7216 18.8308C90.2729 18.8308 90.7398 18.6283 91.1223 18.2233C91.516 17.8183 91.7129 17.2389 91.7129 16.4851C91.7129 15.7314 91.5216 15.152 91.1391 14.747C90.7679 14.342 90.3066 14.1395 89.7554 14.1395C89.1929 14.1395 88.726 14.342 88.3548 14.747C87.9835 15.1408 87.7979 15.7201 87.7979 16.4851C87.7979 17.2389 87.9779 17.8183 88.3379 18.2233C88.7091 18.6283 89.1704 18.8308 89.7216 18.8308Z" fill="#98A2B3"/>
<path d="M101.58 21.1933L99.7744 18.5776L98.2557 21.1933H95.1338L98.2388 16.3839L95.0494 11.777H98.2894L100.095 14.3758L101.614 11.777H104.736L101.58 16.5189L104.82 21.1933H101.58Z" fill="#98A2B3"/>
</g>
</svg>
