<svg width="10" height="12" viewBox="0 0 10 12" fill="none" xmlns="http://www.w3.org/2000/svg">
<path d="M5 0C2.24229 0 0 2.15282 0 4.80049C0 6.09464 0.657494 7.35124 1.45508 8.18521L4.76318 11.8957C4.79252 11.9285 4.82887 11.9547 4.86974 11.9727C4.91061 11.9907 4.95504 12 5 12C5.04496 12 5.08939 11.9907 5.13026 11.9727C5.17113 11.9547 5.20748 11.9285 5.23682 11.8957L8.54492 8.18521C9.34251 7.35124 10 6.09464 10 4.80049C10 2.15282 7.75771 0 5 0ZM5 3.0003C6.03183 3.0003 6.875 3.80984 6.875 4.80049C6.875 5.79114 6.03183 6.60068 5 6.60068C3.96817 6.60068 3.125 5.79114 3.125 4.80049C3.125 3.80984 3.96817 3.0003 5 3.0003Z" fill="white" fill-opacity="0.6"/>
</svg>
