<svg width="20" height="20" viewBox="0 0 20 20" fill="none" xmlns="http://www.w3.org/2000/svg">
<path d="M12.7001 18.5586H12.5918C8.89176 18.5586 7.10843 17.1002 6.80009 13.8336C6.76676 13.4919 7.01676 13.1836 7.36676 13.1502C7.70009 13.1169 8.01676 13.3752 8.05009 13.7169C8.29176 16.3336 9.52509 17.3086 12.6001 17.3086H12.7084C16.1001 17.3086 17.3001 16.1086 17.3001 12.7169V7.28356C17.3001 3.89189 16.1001 2.69189 12.7084 2.69189H12.6001C9.50843 2.69189 8.27509 3.68356 8.05009 6.35023C8.00843 6.69189 7.71676 6.95023 7.36676 6.91689C7.01676 6.89189 6.76676 6.58356 6.79176 6.24189C7.07509 2.92523 8.86676 1.44189 12.5918 1.44189H12.7001C16.7918 1.44189 18.5418 3.19189 18.5418 7.28356V12.7169C18.5418 16.8086 16.7918 18.5586 12.7001 18.5586Z" fill="white"/>
<path d="M12.4999 10.625H3.0166C2.67493 10.625 2.3916 10.3417 2.3916 10C2.3916 9.65833 2.67493 9.375 3.0166 9.375H12.4999C12.8416 9.375 13.1249 9.65833 13.1249 10C13.1249 10.3417 12.8416 10.625 12.4999 10.625Z" fill="white"/>
<path d="M4.87503 13.4167C4.7167 13.4167 4.55837 13.3584 4.43337 13.2334L1.6417 10.4417C1.40003 10.2 1.40003 9.80003 1.6417 9.55837L4.43337 6.7667C4.67503 6.52503 5.07503 6.52503 5.3167 6.7667C5.55837 7.00837 5.55837 7.40837 5.3167 7.65003L2.9667 10L5.3167 12.35C5.55837 12.5917 5.55837 12.9917 5.3167 13.2334C5.20003 13.3584 5.03337 13.4167 4.87503 13.4167Z" fill="white"/>
</svg>
