<svg width="26" height="26" viewBox="0 0 26 26" fill="none" xmlns="http://www.w3.org/2000/svg">
<path d="M13.28 12.8826V8.84176C14.6409 9.03029 15.5241 9.78059 15.5433 9.79706C15.7977 10.0209 16.2016 10.0138 16.4464 9.78029C16.6918 9.54647 16.6845 9.17412 16.4301 8.94853C16.3747 8.89941 15.1712 7.85647 13.2803 7.65794V6.58824C13.2803 6.26353 12.9936 6 12.6403 6C12.287 6 12.0003 6.26353 12.0003 6.58824V7.65912C9.8105 7.87941 8.28088 9.18059 8.28088 10.9197C8.28088 12.8506 10.6985 13.4779 12.0003 13.7794V18.2497C11.0118 18.0532 9.62074 17.5256 9.09273 17.0403C8.84281 16.8109 8.43768 16.8106 8.18744 17.0403C7.93752 17.27 7.93752 17.6424 8.18744 17.8724C8.95417 18.5768 10.7449 19.2447 12 19.4447V20.4118C12 20.7365 12.2867 21 12.64 21C12.9932 21 13.28 20.7365 13.28 20.4118V19.4709C14.9206 19.2929 17 18.4103 17 16.4241C17 14.8318 15.6832 13.5847 13.28 12.8826ZM9.56057 10.9197C9.56057 9.67765 10.7295 9.01412 12 8.84441V12.5638C10.9635 12.3082 9.56057 11.8579 9.56057 10.9197ZM13.28 18.2709V14.1268C14.4169 14.515 15.72 15.2218 15.72 16.4241C15.72 17.7306 14.1721 18.1418 13.28 18.2709Z" fill="#FF7A00"/>
<path d="M13 0C5.95338 0 0 5.95338 0 13C0 20.0466 5.95338 26 13 26C20.0466 26 26 20.0466 26 13C26 5.95338 20.0466 0 13 0ZM13 24.7619C6.62443 24.7619 1.2381 19.3756 1.2381 13C1.2381 6.62443 6.62443 1.2381 13 1.2381C19.3756 1.2381 24.7619 6.62443 24.7619 13C24.7619 19.3756 19.3756 24.7619 13 24.7619Z" fill="#FF7A00"/>
</svg>
