<svg width="23" height="24" viewBox="0 0 23 24" fill="none" xmlns="http://www.w3.org/2000/svg">
<path d="M22.3567 12.0469C22.0862 12.0469 21.8402 12.2683 21.8402 12.5634C21.8402 18.3186 17.1672 22.9916 11.412 22.9916C5.65681 22.9916 1.00839 18.3186 1.00839 12.5634C1.00839 7.05416 5.28789 2.55331 10.6988 2.15979L10.2314 2.50412C10.0101 2.67629 9.96091 2.99602 10.1331 3.21737C10.2314 3.34035 10.379 3.41413 10.5266 3.41413C10.625 3.41413 10.7479 3.38954 10.8217 3.31575L12.4942 2.03682C12.6171 1.93844 12.6909 1.79087 12.6909 1.61871C12.6909 1.44654 12.5926 1.29897 12.4696 1.22519L10.7971 0.0938285C10.6004 -0.0783353 10.3052 -0.00455081 10.1331 0.241397C9.9855 0.462751 10.0347 0.782484 10.2806 0.954647L10.625 1.176C4.69761 1.56952 0 6.53767 0 12.5634C0 18.8597 5.14032 24 11.4366 24C17.7329 24 22.8732 18.8597 22.8732 12.5634C22.8732 12.2683 22.6518 12.0469 22.3567 12.0469Z" fill="#FF7A00"/>
<path d="M21.9877 10.5222C22.3273 10.5222 22.6025 10.2469 22.6025 9.90735C22.6025 9.56777 22.3273 9.29248 21.9877 9.29248C21.6481 9.29248 21.3728 9.56777 21.3728 9.90735C21.3728 10.2469 21.6481 10.5222 21.9877 10.5222Z" fill="#FF7A00"/>
<path d="M21.176 8.23462C21.5156 8.23462 21.7909 7.95934 21.7909 7.61975C21.7909 7.28017 21.5156 7.00488 21.176 7.00488C20.8364 7.00488 20.5612 7.28017 20.5612 7.61975C20.5612 7.95934 20.8364 8.23462 21.176 8.23462Z" fill="#FF7A00"/>
<path d="M19.7003 6.07056C20.0399 6.07056 20.3152 5.79527 20.3152 5.45569C20.3152 5.11611 20.0399 4.84082 19.7003 4.84082C19.3607 4.84082 19.0854 5.11611 19.0854 5.45569C19.0854 5.79527 19.3607 6.07056 19.7003 6.07056Z" fill="#FF7A00"/>
<path d="M17.6345 4.22584C17.9741 4.22584 18.2494 3.95055 18.2494 3.61096C18.2494 3.27138 17.9741 2.99609 17.6345 2.99609C17.2949 2.99609 17.0197 3.27138 17.0197 3.61096C17.0197 3.95055 17.2949 4.22584 17.6345 4.22584Z" fill="#FF7A00"/>
<path d="M15.1995 2.94703C15.539 2.94703 15.8143 2.67174 15.8143 2.33216C15.8143 1.99257 15.539 1.71729 15.1995 1.71729C14.8599 1.71729 14.5846 1.99257 14.5846 2.33216C14.5846 2.67174 14.8599 2.94703 15.1995 2.94703Z" fill="#FF7A00"/>
<path d="M9.14914 10.3498C10.3581 10.3498 11.3381 9.39181 11.3381 8.21006C11.3381 7.02831 10.3581 6.07031 9.14914 6.07031C7.94023 6.07031 6.96021 7.02831 6.96021 8.21006C6.96021 9.39181 7.94023 10.3498 9.14914 10.3498Z" fill="#FF7A00"/>
<path d="M15.8391 10.0792C16.5183 10.0792 17.0689 9.53968 17.0689 8.87409C17.0689 8.20851 16.5183 7.66895 15.8391 7.66895C15.1599 7.66895 14.6094 8.20851 14.6094 8.87409C14.6094 9.53968 15.1599 10.0792 15.8391 10.0792Z" fill="#FF7A00"/>
<path d="M17.3639 12.9323C17.118 12.4404 16.5277 12.2682 16.0358 12.5142L12.8631 14.162C12.5188 13.6455 9.71495 9.80874 7.13249 11.2844C5.48464 12.219 6.17329 16.3018 6.6406 18.3185H12.2728L12.445 16.892C12.3466 16.8183 8.0671 13.5717 8.14088 13.4734C8.21466 13.375 8.38683 13.3504 8.48521 13.4242L12.5679 16.5231L16.9458 14.2604C17.4131 13.9899 17.6099 13.3996 17.3639 12.9323Z" fill="#FF7A00"/>
<path d="M13.3058 13.3504C13.0107 13.3504 12.7402 13.2029 12.5926 12.9323C12.3712 12.5388 12.5188 12.0715 12.9123 11.8501L15.4456 10.4728C15.8391 10.2515 16.3064 10.3991 16.5278 10.7926C16.7491 11.1861 16.6015 11.6534 16.208 11.8747L13.6748 13.2521C13.5518 13.3258 13.4288 13.3504 13.3058 13.3504Z" fill="#FF7A00"/>
</svg>
