<svg width="34" height="28" viewBox="0 0 34 28" fill="none" xmlns="http://www.w3.org/2000/svg">
<path d="M3.15157 4.48669C5.4899 1.95169 9.02823 0.666687 13.6666 0.666687H15.3332V5.36502L13.9932 5.63335C11.7099 6.09002 10.1216 6.98835 9.27157 8.30669C8.82792 9.01684 8.57637 9.83007 8.54157 10.6667H13.6666C14.1086 10.6667 14.5325 10.8423 14.8451 11.1548C15.1576 11.4674 15.3332 11.8913 15.3332 12.3334V24C15.3332 25.8384 13.8382 27.3334 11.9999 27.3334H1.9999C1.55787 27.3334 1.13395 27.1578 0.821389 26.8452C0.508828 26.5326 0.333234 26.1087 0.333234 25.6667V17.3334L0.338234 12.4684C0.323234 12.2834 0.00656694 7.90002 3.15157 4.48669ZM30.3332 27.3334H20.3332C19.8912 27.3334 19.4673 27.1578 19.1547 26.8452C18.8422 26.5326 18.6666 26.1087 18.6666 25.6667V17.3334L18.6716 12.4684C18.6566 12.2834 18.3399 7.90002 21.4849 4.48669C23.8232 1.95169 27.3616 0.666687 31.9999 0.666687H33.6666V5.36502L32.3266 5.63335C30.0432 6.09002 28.4549 6.98835 27.6049 8.30669C27.1613 9.01684 26.9097 9.83007 26.8749 10.6667H31.9999C32.4419 10.6667 32.8659 10.8423 33.1784 11.1548C33.491 11.4674 33.6666 11.8913 33.6666 12.3334V24C33.6666 25.8384 32.1716 27.3334 30.3332 27.3334Z" fill="#FF7A00"/>
</svg>
