<svg width="10" height="10" viewBox="0 0 10 10" fill="none" xmlns="http://www.w3.org/2000/svg">
<path fill-rule="evenodd" clip-rule="evenodd" d="M5.2924 2L4.5975 0.76461C4.33185 0.292295 3.83206 0 3.29015 0H1.5C0.671575 0 0 0.671575 0 1.5V8.5C0 9.32845 0.67157 10 1.5 10H8.5C9.32845 10 10 9.32845 10 8.5V3.5C10 2.67158 9.32845 2 8.5 2H5.2924ZM1 2H4.1451L3.72594 1.25487C3.63738 1.09743 3.47079 1 3.29015 1H1.5C1.22386 1 1 1.22386 1 1.5V2ZM5 4C5.5523 4 6 4.4477 6 5C6 5.24795 5.90975 5.47485 5.7603 5.6496C6.4878 5.94885 7 6.6646 7 7.5C7 7.77615 6.77615 8 6.5 8C6.22385 8 6 7.77615 6 7.5C6 6.9477 5.5523 6.5 5 6.5C4.4477 6.5 4 6.9477 4 7.5C4 7.77615 3.77614 8 3.5 8C3.22386 8 3 7.77615 3 7.5C3 6.6646 3.5122 5.94885 4.2397 5.6496C4.09025 5.47485 4 5.24795 4 5C4 4.4477 4.4477 4 5 4Z" fill="white" fill-opacity="0.6"/>
</svg>
