<svg width="57" height="56" viewBox="0 0 57 56" fill="none" xmlns="http://www.w3.org/2000/svg">
<rect x="4.33331" y="4" width="48" height="48" rx="24" fill="#F4EBFF"/>
<rect x="4.33331" y="4" width="48" height="48" rx="24" stroke="#F9F5FF" stroke-width="8"/>
<path d="M38.3333 27V24.2C38.3333 23.0799 38.3333 22.5198 38.1153 22.092C37.9236 21.7157 37.6176 21.4097 37.2413 21.218C36.8135 21 36.2534 21 35.1333 21H21.5333C20.4132 21 19.8532 21 19.4253 21.218C19.049 21.4097 18.743 21.7157 18.5513 22.092C18.3333 22.5198 18.3333 23.0799 18.3333 24.2V27.8C18.3333 28.9201 18.3333 29.4802 18.5513 29.908C18.743 30.2843 19.049 30.5903 19.4253 30.782C19.8532 31 20.4132 31 21.5333 31H27.3333M28.3333 26H28.3383M33.3333 26H33.3383M23.3333 26H23.3383M35.5833 33V31.25C35.5833 30.2835 34.7998 29.5 33.8333 29.5C32.8668 29.5 32.0833 30.2835 32.0833 31.25V33M28.5833 26C28.5833 26.1381 28.4714 26.25 28.3333 26.25C28.1952 26.25 28.0833 26.1381 28.0833 26C28.0833 25.8619 28.1952 25.75 28.3333 25.75C28.4714 25.75 28.5833 25.8619 28.5833 26ZM33.5833 26C33.5833 26.1381 33.4714 26.25 33.3333 26.25C33.1952 26.25 33.0833 26.1381 33.0833 26C33.0833 25.8619 33.1952 25.75 33.3333 25.75C33.4714 25.75 33.5833 25.8619 33.5833 26ZM23.5833 26C23.5833 26.1381 23.4714 26.25 23.3333 26.25C23.1952 26.25 23.0833 26.1381 23.0833 26C23.0833 25.8619 23.1952 25.75 23.3333 25.75C23.4714 25.75 23.5833 25.8619 23.5833 26ZM31.9333 37H35.7333C36.2934 37 36.5734 37 36.7873 36.891C36.9755 36.7951 37.1284 36.6422 37.2243 36.454C37.3333 36.2401 37.3333 35.9601 37.3333 35.4V34.6C37.3333 34.0399 37.3333 33.7599 37.2243 33.546C37.1284 33.3578 36.9755 33.2049 36.7873 33.109C36.5734 33 36.2934 33 35.7333 33H31.9333C31.3733 33 31.0932 33 30.8793 33.109C30.6912 33.2049 30.5382 33.3578 30.4423 33.546C30.3333 33.7599 30.3333 34.0399 30.3333 34.6V35.4C30.3333 35.9601 30.3333 36.2401 30.4423 36.454C30.5382 36.6422 30.6912 36.7951 30.8793 36.891C31.0932 37 31.3733 37 31.9333 37Z" stroke="#7F56D9" stroke-width="2" stroke-linecap="round" stroke-linejoin="round"/>
</svg>
