<svg width="57" height="56" viewBox="0 0 57 56" fill="none" xmlns="http://www.w3.org/2000/svg">
<rect x="4.33398" y="4" width="48" height="48" rx="24" fill="#FFD6B0"/>
<rect x="4.33398" y="4" width="48" height="48" rx="24" stroke="#FFF6EE" stroke-width="8"/>
<path d="M38.334 27V24.2C38.334 23.0799 38.334 22.5198 38.116 22.092C37.9243 21.7157 37.6183 21.4097 37.242 21.218C36.8141 21 36.2541 21 35.134 21H21.534C20.4139 21 19.8538 21 19.426 21.218C19.0497 21.4097 18.7437 21.7157 18.552 22.092C18.334 22.5198 18.334 23.0799 18.334 24.2V27.8C18.334 28.9201 18.334 29.4802 18.552 29.908C18.7437 30.2843 19.0497 30.5903 19.426 30.782C19.8538 31 20.4139 31 21.534 31H27.334M28.334 26H28.339M33.334 26H33.339M23.334 26H23.339M35.584 33V31.25C35.584 30.2835 34.8005 29.5 33.834 29.5C32.8675 29.5 32.084 30.2835 32.084 31.25V33M28.584 26C28.584 26.1381 28.4721 26.25 28.334 26.25C28.1959 26.25 28.084 26.1381 28.084 26C28.084 25.8619 28.1959 25.75 28.334 25.75C28.4721 25.75 28.584 25.8619 28.584 26ZM33.584 26C33.584 26.1381 33.4721 26.25 33.334 26.25C33.1959 26.25 33.084 26.1381 33.084 26C33.084 25.8619 33.1959 25.75 33.334 25.75C33.4721 25.75 33.584 25.8619 33.584 26ZM23.584 26C23.584 26.1381 23.4721 26.25 23.334 26.25C23.1959 26.25 23.084 26.1381 23.084 26C23.084 25.8619 23.1959 25.75 23.334 25.75C23.4721 25.75 23.584 25.8619 23.584 26ZM31.934 37H35.734C36.294 37 36.5741 37 36.788 36.891C36.9761 36.7951 37.1291 36.6422 37.225 36.454C37.334 36.2401 37.334 35.9601 37.334 35.4V34.6C37.334 34.0399 37.334 33.7599 37.225 33.546C37.1291 33.3578 36.9761 33.2049 36.788 33.109C36.5741 33 36.294 33 35.734 33H31.934C31.3739 33 31.0939 33 30.88 33.109C30.6918 33.2049 30.5389 33.3578 30.443 33.546C30.334 33.7599 30.334 34.0399 30.334 34.6V35.4C30.334 35.9601 30.334 36.2401 30.443 36.454C30.5389 36.6422 30.6918 36.7951 30.88 36.891C31.0939 37 31.3739 37 31.934 37Z" stroke="#FF7A00" stroke-width="2" stroke-linecap="round" stroke-linejoin="round"/>
</svg>
