<svg width="11" height="11" viewBox="0 0 11 11" fill="none" xmlns="http://www.w3.org/2000/svg">
<path d="M6.03803 7.37883V7.1436C6.03757 7.09522 6.05106 7.04773 6.07686 7.0068C6.10267 6.96588 6.13971 6.93324 6.18357 6.9128C6.26719 6.87508 6.34747 6.83034 6.42354 6.77906C6.46503 6.7525 6.51303 6.73784 6.56228 6.73669C6.61154 6.73553 6.66017 6.74793 6.70286 6.77252L6.91367 6.89026C7.17267 6.6451 7.35883 6.3331 7.45157 5.98873L7.08611 5.78465C7.12355 5.59665 7.12355 5.4031 7.08611 5.21509L7.45148 5.01104C7.35917 4.66659 7.1734 4.35436 6.91471 4.1089L6.70287 4.2272C6.66018 4.25181 6.61155 4.26421 6.56229 4.26306C6.51303 4.2619 6.46503 4.24724 6.42354 4.22066C6.34747 4.1694 6.26719 4.12466 6.18357 4.08694C6.13972 4.0665 6.10267 4.03386 6.07687 3.99294C6.05106 3.95201 6.03758 3.90452 6.03803 3.85613V3.61994C5.68569 3.52399 5.31405 3.52432 4.96187 3.62089V3.85613C4.96233 3.90451 4.94885 3.952 4.92304 3.99293C4.89723 4.03386 4.86019 4.06649 4.81634 4.08693C4.73272 4.12465 4.65245 4.16939 4.57638 4.22066C4.53488 4.24723 4.48689 4.2619 4.43763 4.26305C4.38836 4.2642 4.33973 4.2518 4.29704 4.2272L4.08622 4.10948C3.82723 4.35464 3.64108 4.66665 3.54834 5.01101L3.91379 5.21509C3.87635 5.4031 3.87635 5.59665 3.91379 5.78465L3.54841 5.98869C3.64071 6.33315 3.82648 6.64538 4.08517 6.89084L4.29705 6.77253C4.33975 6.74793 4.38838 6.73554 4.43764 6.7367C4.4869 6.73785 4.5349 6.75252 4.57639 6.77909C4.65245 6.83036 4.73272 6.87509 4.81634 6.91281C4.86019 6.93325 4.89723 6.96588 4.92304 7.00681C4.94885 7.04773 4.96233 7.09522 4.96187 7.1436V7.37979C5.31422 7.47574 5.68585 7.47541 6.03803 7.37883ZM4.79028 5.52205C4.79028 5.38168 4.8319 5.24448 4.90988 5.12777C4.98786 5.01106 5.0987 4.9201 5.22837 4.86639C5.35805 4.81267 5.50074 4.79862 5.63841 4.826C5.77607 4.85339 5.90252 4.92098 6.00177 5.02023C6.10102 5.11948 6.16861 5.24593 6.196 5.38359C6.22338 5.52126 6.20933 5.66395 6.15561 5.79363C6.1019 5.9233 6.01094 6.03414 5.89423 6.11212C5.77752 6.1901 5.64032 6.23172 5.49995 6.23172C5.31174 6.23172 5.13123 6.15695 4.99814 6.02386C4.86505 5.89077 4.79028 5.71026 4.79028 5.52205Z" fill="#ADADAD"/>
<path d="M8.77309 5.09824L9.90021 5.66167L10.9858 5.11898C10.8894 3.72962 10.2694 2.4286 9.25108 1.47851C8.23276 0.52843 6.89193 4.09372e-05 5.49923 0C5.46466 0 5.43059 0.00197112 5.39616 0.00260983L6.0214 1.00278C6.03966 1.03191 6.04934 1.0656 6.04934 1.09999C6.04934 1.13438 6.03966 1.16807 6.0214 1.19721L5.39111 2.20546C5.42732 2.20428 5.46273 2.19999 5.49923 2.19999C6.30464 2.20022 7.08215 2.49505 7.68521 3.02892C8.28826 3.56278 8.6752 4.2988 8.77309 5.09824Z" fill="#ADADAD"/>
<path d="M5.47803 8.79889C4.66371 8.79383 3.88001 8.48787 3.27768 7.93984C2.67534 7.39182 2.2969 6.64044 2.21514 5.83022L1.0982 5.33392L0.0078125 5.81843C0.0892047 7.21969 0.703219 8.53682 1.72412 9.50011C2.74502 10.4634 4.09556 11 5.49919 10.9999C5.53374 10.9999 5.56783 10.998 5.60226 10.9973L4.97699 9.99713C4.96035 9.97048 4.95083 9.94002 4.94932 9.90864C4.94782 9.87726 4.95438 9.84603 4.9684 9.81791L5.47803 8.79889Z" fill="#ADADAD"/>
<path d="M9.90044 6.05037C9.87197 6.05038 9.84389 6.04376 9.81843 6.03103L8.79914 5.52148C8.79376 6.3231 8.49666 7.09532 7.96335 7.69381C7.43004 8.2923 6.69703 8.6761 5.90133 8.77347L5.34277 9.89035L6.02082 10.9751C7.37935 10.8459 8.64133 10.2162 9.56154 9.20851C10.4818 8.20079 10.9945 6.88696 11.0001 5.52231L9.98245 6.03103C9.95699 6.04376 9.92891 6.05038 9.90044 6.05037Z" fill="#ADADAD"/>
<path d="M0 5.42106L1.02385 4.96611C1.0473 4.95566 1.07268 4.95026 1.09835 4.95026C1.12402 4.95026 1.1494 4.95566 1.17285 4.96611L2.20207 5.42344C2.21993 4.66111 2.50146 3.92853 2.99873 3.35044C3.496 2.77235 4.17827 2.38448 4.92937 2.25288L5.64977 1.10036L4.97799 0.0256348C3.62941 0.153998 2.37564 0.775576 1.45703 1.77122C0.538414 2.76686 0.0195875 4.06652 0 5.42106Z" fill="#ADADAD"/>
</svg>
