<svg width="11" height="11" viewBox="0 0 11 11" fill="none" xmlns="http://www.w3.org/2000/svg">
<path d="M6.03852 7.37944V7.14421C6.03806 7.09583 6.05154 7.04834 6.07735 7.00741C6.10316 6.96649 6.1402 6.93385 6.18406 6.91341C6.26768 6.87569 6.34796 6.83095 6.42402 6.77967C6.46552 6.75311 6.51351 6.73845 6.56277 6.7373C6.61203 6.73614 6.66066 6.74854 6.70335 6.77313L6.91416 6.89087C7.17316 6.64571 7.35932 6.33371 7.45206 5.98935L7.08659 5.78527C7.12403 5.59726 7.12403 5.40371 7.08659 5.2157L7.45197 5.01165C7.35966 4.6672 7.17389 4.35498 6.9152 4.10951L6.70336 4.22781C6.66067 4.25242 6.61204 4.26482 6.56278 4.26367C6.51352 4.26251 6.46552 4.24785 6.42403 4.22128C6.34796 4.17001 6.26768 4.12527 6.18406 4.08755C6.14021 4.06711 6.10316 4.03447 6.07735 3.99355C6.05155 3.95262 6.03807 3.90513 6.03852 3.85674V3.62055C5.68618 3.5246 5.31454 3.52493 4.96236 3.6215V3.85674C4.96282 3.90512 4.94934 3.95261 4.92353 3.99354C4.89772 4.03447 4.86068 4.0671 4.81682 4.08754C4.73321 4.12526 4.65293 4.17 4.57687 4.22127C4.53537 4.24784 4.48738 4.26251 4.43811 4.26366C4.38885 4.26481 4.34022 4.25241 4.29753 4.22781L4.08671 4.11009C3.82772 4.35526 3.64157 4.66726 3.54883 5.01162L3.91428 5.2157C3.87684 5.40371 3.87684 5.59726 3.91428 5.78527L3.54889 5.9893C3.64119 6.33376 3.82696 6.64599 4.08566 6.89145L4.29754 6.77314C4.34024 6.74854 4.38887 6.73615 4.43813 6.73731C4.48739 6.73846 4.53538 6.75313 4.57688 6.7797C4.65294 6.83097 4.73321 6.8757 4.81682 6.91342C4.86068 6.93386 4.89772 6.96649 4.92353 7.00742C4.94934 7.04834 4.96282 7.09583 4.96236 7.14421V7.3804C5.31471 7.47635 5.68634 7.47602 6.03852 7.37944ZM4.79076 5.52266C4.79076 5.3823 4.83239 5.24509 4.91037 5.12838C4.98835 5.01167 5.09918 4.92071 5.22886 4.867C5.35854 4.81329 5.50123 4.79923 5.63889 4.82661C5.77656 4.854 5.90301 4.92159 6.00226 5.02084C6.10151 5.12009 6.1691 5.24654 6.19648 5.3842C6.22387 5.52187 6.20981 5.66456 6.1561 5.79424C6.10239 5.92392 6.01143 6.03475 5.89472 6.11273C5.77801 6.19071 5.6408 6.23233 5.50044 6.23233C5.31222 6.23233 5.13172 6.15756 4.99862 6.02447C4.86553 5.89138 4.79076 5.71087 4.79076 5.52266Z" fill="#666666"/>
<path d="M8.77357 5.09824L9.90069 5.66167L10.9863 5.11898C10.8898 3.72962 10.2699 2.4286 9.25157 1.47851C8.23325 0.52843 6.89242 4.09372e-05 5.49972 0C5.46515 0 5.43107 0.00197112 5.39665 0.00260983L6.02189 1.00278C6.04015 1.03191 6.04983 1.0656 6.04983 1.09999C6.04983 1.13438 6.04015 1.16807 6.02189 1.19721L5.3916 2.20546C5.42781 2.20428 5.46321 2.19999 5.49972 2.19999C6.30513 2.20022 7.08264 2.49505 7.68569 3.02892C8.28875 3.56278 8.67569 4.2988 8.77357 5.09824Z" fill="#666666"/>
<path d="M5.47803 8.79889C4.66371 8.79383 3.88001 8.48787 3.27768 7.93984C2.67534 7.39182 2.2969 6.64044 2.21514 5.83022L1.0982 5.33392L0.0078125 5.81843C0.0892047 7.21969 0.703219 8.53682 1.72412 9.50011C2.74502 10.4634 4.09556 11 5.49919 10.9999C5.53374 10.9999 5.56783 10.998 5.60226 10.9973L4.97699 9.99713C4.96035 9.97048 4.95083 9.94002 4.94932 9.90864C4.94782 9.87726 4.95438 9.84603 4.9684 9.81791L5.47803 8.79889Z" fill="#666666"/>
<path d="M9.90044 6.05037C9.87197 6.05038 9.84389 6.04376 9.81843 6.03103L8.79914 5.52148C8.79376 6.3231 8.49666 7.09532 7.96335 7.69381C7.43004 8.2923 6.69703 8.6761 5.90133 8.77347L5.34277 9.89035L6.02082 10.9751C7.37935 10.8459 8.64133 10.2162 9.56154 9.20851C10.4818 8.20079 10.9945 6.88696 11.0001 5.52231L9.98245 6.03103C9.95699 6.04376 9.92891 6.05038 9.90044 6.05037Z" fill="#666666"/>
<path d="M0 5.42106L1.02385 4.96611C1.0473 4.95566 1.07268 4.95026 1.09835 4.95026C1.12402 4.95026 1.1494 4.95566 1.17285 4.96611L2.20207 5.42344C2.21993 4.66111 2.50146 3.92853 2.99873 3.35044C3.496 2.77235 4.17827 2.38448 4.92937 2.25288L5.64977 1.10036L4.97799 0.0256348C3.62941 0.153998 2.37564 0.775576 1.45703 1.77122C0.538414 2.76686 0.0195875 4.06652 0 5.42106Z" fill="#666666"/>
</svg>
