<svg width="16" height="16" viewBox="0 0 16 16" fill="none" xmlns="http://www.w3.org/2000/svg">
<mask id="path-1-inside-1_1735_3908" fill="white">
<path d="M14.6667 4.83398H10.6667C10.3934 4.83398 10.1667 4.60732 10.1667 4.33398C10.1667 4.06065 10.3934 3.83398 10.6667 3.83398H14.6667C14.94 3.83398 15.1667 4.06065 15.1667 4.33398C15.1667 4.60732 14.94 4.83398 14.6667 4.83398Z"/>
</mask>
<path d="M14.6667 4.83398H10.6667C10.3934 4.83398 10.1667 4.60732 10.1667 4.33398C10.1667 4.06065 10.3934 3.83398 10.6667 3.83398H14.6667C14.94 3.83398 15.1667 4.06065 15.1667 4.33398C15.1667 4.60732 14.94 4.83398 14.6667 4.83398Z" fill="#292D32"/>
<path d="M14.6667 3.83398H10.6667V5.83398H14.6667V3.83398ZM10.6667 3.83398C10.9456 3.83398 11.1667 4.05503 11.1667 4.33398H9.16669C9.16669 5.1596 9.84107 5.83398 10.6667 5.83398V3.83398ZM11.1667 4.33398C11.1667 4.61294 10.9456 4.83398 10.6667 4.83398V2.83398C9.84107 2.83398 9.16669 3.50837 9.16669 4.33398H11.1667ZM10.6667 4.83398H14.6667V2.83398H10.6667V4.83398ZM14.6667 4.83398C14.3877 4.83398 14.1667 4.61294 14.1667 4.33398H16.1667C16.1667 3.50837 15.4923 2.83398 14.6667 2.83398V4.83398ZM14.1667 4.33398C14.1667 4.05503 14.3877 3.83398 14.6667 3.83398V5.83398C15.4923 5.83398 16.1667 5.1596 16.1667 4.33398H14.1667Z" fill="#1A1A1A" mask="url(#path-1-inside-1_1735_3908)"/>
<mask id="path-3-inside-2_1735_3908" fill="white">
<path d="M3.99998 4.83398H1.33331C1.05998 4.83398 0.833313 4.60732 0.833313 4.33398C0.833313 4.06065 1.05998 3.83398 1.33331 3.83398H3.99998C4.27331 3.83398 4.49998 4.06065 4.49998 4.33398C4.49998 4.60732 4.27331 4.83398 3.99998 4.83398Z"/>
</mask>
<path d="M3.99998 4.83398H1.33331C1.05998 4.83398 0.833313 4.60732 0.833313 4.33398C0.833313 4.06065 1.05998 3.83398 1.33331 3.83398H3.99998C4.27331 3.83398 4.49998 4.06065 4.49998 4.33398C4.49998 4.60732 4.27331 4.83398 3.99998 4.83398Z" fill="#292D32"/>
<path d="M3.99998 3.83398H1.33331V5.83398H3.99998V3.83398ZM1.33331 3.83398C1.61226 3.83398 1.83331 4.05503 1.83331 4.33398H-0.166687C-0.166687 5.1596 0.507695 5.83398 1.33331 5.83398V3.83398ZM1.83331 4.33398C1.83331 4.61294 1.61226 4.83398 1.33331 4.83398V2.83398C0.507695 2.83398 -0.166687 3.50837 -0.166687 4.33398H1.83331ZM1.33331 4.83398H3.99998V2.83398H1.33331V4.83398ZM3.99998 4.83398C3.72103 4.83398 3.49998 4.61294 3.49998 4.33398H5.49998C5.49998 3.50837 4.8256 2.83398 3.99998 2.83398V4.83398ZM3.49998 4.33398C3.49998 4.05503 3.72103 3.83398 3.99998 3.83398V5.83398C4.8256 5.83398 5.49998 5.1596 5.49998 4.33398H3.49998Z" fill="#1A1A1A" mask="url(#path-3-inside-2_1735_3908)"/>
<path d="M6.66665 7.16667C5.10665 7.16667 3.83331 5.89333 3.83331 4.33333C3.83331 2.77333 5.10665 1.5 6.66665 1.5C8.22665 1.5 9.49998 2.77333 9.49998 4.33333C9.49998 5.89333 8.22665 7.16667 6.66665 7.16667ZM6.66665 2.5C5.65331 2.5 4.83331 3.32 4.83331 4.33333C4.83331 5.34667 5.65331 6.16667 6.66665 6.16667C7.67998 6.16667 8.49998 5.34667 8.49998 4.33333C8.49998 3.32 7.67998 2.5 6.66665 2.5Z" fill="#292D32"/>
<path d="M14.6667 12.166H12C11.7267 12.166 11.5 11.9393 11.5 11.666C11.5 11.3927 11.7267 11.166 12 11.166H14.6667C14.94 11.166 15.1667 11.3927 15.1667 11.666C15.1667 11.9393 14.94 12.166 14.6667 12.166Z" fill="#292D32"/>
<path d="M5.33331 12.166H1.33331C1.05998 12.166 0.833313 11.9393 0.833313 11.666C0.833313 11.3927 1.05998 11.166 1.33331 11.166H5.33331C5.60665 11.166 5.83331 11.3927 5.83331 11.666C5.83331 11.9393 5.60665 12.166 5.33331 12.166Z" fill="#292D32"/>
<path d="M9.33333 14.5007C7.77333 14.5007 6.5 13.2273 6.5 11.6673C6.5 10.1073 7.77333 8.83398 9.33333 8.83398C10.8933 8.83398 12.1667 10.1073 12.1667 11.6673C12.1667 13.2273 10.8933 14.5007 9.33333 14.5007ZM9.33333 9.83398C8.32 9.83398 7.5 10.654 7.5 11.6673C7.5 12.6807 8.32 13.5007 9.33333 13.5007C10.3467 13.5007 11.1667 12.6807 11.1667 11.6673C11.1667 10.654 10.3467 9.83398 9.33333 9.83398Z" fill="#292D32"/>
</svg>
