<svg width="102" height="130" viewBox="0 0 102 130" fill="none" xmlns="http://www.w3.org/2000/svg">
<g clip-path="url(#clip0_844_499)">
<path d="M101.101 34.6221C101.101 34.6221 93.7826 93.1904 81.7543 106.37C67.3664 122.177 56.8153 119.866 51.0601 128.019C45.2282 119.856 34.7539 122.177 20.366 106.36C8.33769 93.1809 1.03821 34.6125 1.03821 34.6125C32.6916 19.2655 51.1081 2 51.1081 2C51.5877 2.54674 69.9082 19.4861 101.101 34.6221Z" fill="#37474F"/>
<path d="M51.0219 2.01919V128.019C45.19 119.856 34.7156 122.177 20.3277 106.36C8.29945 93.1809 1 34.6125 1 34.6125C32.6534 19.2655 51.0698 2 51.0698 2L51.0219 2.01919Z" fill="#455A64"/>
<path d="M93.3701 39.3414C93.3701 39.3414 87.1929 88.8165 77.0638 99.9527C64.8533 113.324 55.9615 111.358 51.0793 118.245C46.1586 111.358 37.3053 113.324 25.0947 99.9527C14.9465 88.8165 8.78845 39.3414 8.78845 39.3414C35.5499 26.3443 51.0889 11.7838 51.0889 11.7838C51.0889 11.7838 66.5606 26.3443 93.3701 39.3414Z" fill="#455A64"/>
<path d="M8.72156 39.3414C8.72156 39.3414 14.8988 88.8069 25.0278 99.9528C37.2192 113.314 46.0629 111.367 50.9932 118.235V11.7646C50.552 12.2921 35.0706 26.5457 8.72156 39.3414Z" fill="#37474F"/>
<path d="M64.8976 78.8874C72.5579 71.2271 72.5579 58.8072 64.8976 51.1469C57.2373 43.4866 44.8174 43.4866 37.1571 51.1469C29.4968 58.8072 29.4968 71.2271 37.1571 78.8874C44.8174 86.5477 57.2373 86.5477 64.8976 78.8874Z" fill="#FF7A00"/>
<path d="M48.7871 77.757L40.0488 68.6734L43.2909 65.5561L48.106 70.563L58.4845 54.6404L62.2541 57.096L48.7871 77.757Z" fill="white"/>
</g>
<defs>
<clipPath id="clip0_844_499">
<rect width="100.101" height="130" fill="white" transform="translate(0.949341)"/>
</clipPath>
</defs>
</svg>
