<svg width="105" height="30" viewBox="0 0 105 30" fill="none" xmlns="http://www.w3.org/2000/svg">
<g opacity="0.9">
<path d="M26.75 15.1563C26.75 21.9217 21.2655 27.4062 14.5 27.4062C7.73451 27.4062 2.25 21.9217 2.25 15.1562C2.25 8.39076 7.73451 2.90625 14.5 2.90625C21.2655 2.90625 26.75 8.39076 26.75 15.1563Z" stroke="#98A2B3" stroke-width="3"/>
<path d="M19.1846 19.8408C16.6561 22.3693 13.8108 23.9989 11.3139 24.641C8.77934 25.2927 6.89745 24.8778 5.83794 23.8182C4.77844 22.7587 4.36349 20.8769 5.01524 18.3423C5.65729 15.8454 7.28693 13.0001 9.81542 10.4716C12.3439 7.94313 15.1892 6.31349 17.6861 5.67143C20.2207 5.01968 22.1026 5.43463 23.1621 6.49413C24.2216 7.55364 24.6365 9.43553 23.9848 11.9701C23.3427 14.467 21.7131 17.3123 19.1846 19.8408Z" stroke="#98A2B3" stroke-width="3"/>
<path d="M19.1845 10.4716C21.713 13.0001 23.3426 15.8454 23.9846 18.3422C24.6364 20.8769 24.2214 22.7587 23.1619 23.8182C22.1024 24.8777 20.2205 25.2927 17.6859 24.6409C15.1891 23.9989 12.3438 22.3693 9.8153 19.8408C7.28682 17.3123 5.65718 14.467 5.01512 11.9701C4.36337 9.43552 4.77832 7.55363 5.83782 6.49413C6.89733 5.43462 8.77922 5.01967 11.3138 5.67143C13.8107 6.31348 16.656 7.94312 19.1845 10.4716Z" stroke="#98A2B3" stroke-width="3"/>
<path d="M40.0313 21.4C42.975 21.4 44.9625 19.8625 44.9625 17.4062C44.9625 12.2125 38.0625 14.425 38.0625 11.6875C38.0625 10.9187 38.7563 10.3937 39.8625 10.3937C41.1188 10.3937 41.9063 11.0687 42 12.1H44.6813C44.6063 9.60623 42.6938 7.97498 39.8625 7.97498C37.2 7.97498 35.325 9.51248 35.325 11.6875C35.325 16.8437 42.1313 14.875 42.1313 17.4437C42.1313 18.4375 41.2875 18.9625 40.0313 18.9625C38.6438 18.9625 37.7625 18.1187 37.65 16.7875H34.95C35.0625 19.5812 37.05 21.4 40.0313 21.4Z" fill="#98A2B3"/>
<path d="M45.6002 25.075H48.2064V20.4062C48.7127 21.0437 49.6314 21.4 50.7002 21.4C53.4189 21.4 55.2564 19.4687 55.2564 16.525C55.2564 13.5812 53.5689 11.65 50.9252 11.65C49.7064 11.65 48.7689 12.1 48.2064 12.8312V11.8H45.6002V25.075ZM50.3814 19.15C48.9752 19.15 48.0564 18.1 48.0564 16.525C48.0564 14.9312 48.9752 13.8812 50.3814 13.8812C51.7502 13.8812 52.6877 14.9312 52.6877 16.525C52.6877 18.1 51.7502 19.15 50.3814 19.15Z" fill="#98A2B3"/>
<path d="M55.887 21.25H58.4933V16.075C58.4933 14.8562 59.2995 13.975 60.4433 13.975C61.5308 13.975 62.2808 14.8 62.2808 15.9437V21.25H64.887V15.3625C64.887 13.1875 63.4995 11.65 61.3808 11.65C60.0683 11.65 59.037 12.1937 58.4933 13.1125V7.69373H55.887V21.25Z" fill="#98A2B3"/>
<path d="M72.1778 18.0437C71.9716 18.85 71.2778 19.2625 70.2278 19.2625C68.9153 19.2625 68.0716 18.4375 67.8841 17.1062H74.6716C74.6903 16.9 74.7091 16.6187 74.7091 16.2625C74.7091 14.1062 73.3778 11.65 70.0403 11.65C66.8341 11.65 65.3716 14.1062 65.3716 16.5062C65.3716 18.8875 67.0216 21.4 70.2278 21.4C72.5528 21.4 74.3528 20.0875 74.7278 18.0437H72.1778ZM70.0403 13.5625C71.2966 13.5625 72.0278 14.4062 72.1028 15.4562H67.9216C68.1466 14.1437 68.8591 13.5625 70.0403 13.5625Z" fill="#98A2B3"/>
<path d="M81.5443 13.975V11.8H80.1996C79.0559 11.8 78.3434 12.1937 77.8371 13.375V11.8H75.2121V21.25H77.8371V16.6562C77.8371 15.0437 78.4184 13.975 79.7121 13.975H81.5443Z" fill="#98A2B3"/>
<path d="M90.5443 11.8H87.9193V16.975C87.9193 18.175 87.1131 19.075 85.9693 19.075C84.9006 19.075 84.1506 18.25 84.1506 17.1062V11.8H81.5443V17.6875C81.5443 19.8437 82.9318 21.4 85.0506 21.4C86.3443 21.4 87.3943 20.8375 87.9193 19.9375V21.25H90.5443V11.8Z" fill="#98A2B3"/>
<path d="M91.6695 21.25H94.2757V7.69373H91.6695V21.25Z" fill="#98A2B3"/>
<path d="M101.716 18.0437C101.51 18.85 100.816 19.2625 99.7664 19.2625C98.4539 19.2625 97.6102 18.4375 97.4227 17.1062H104.21C104.229 16.9 104.248 16.6187 104.248 16.2625C104.248 14.1062 102.916 11.65 99.5789 11.65C96.3727 11.65 94.9102 14.1062 94.9102 16.5062C94.9102 18.8875 96.5602 21.4 99.7664 21.4C102.091 21.4 103.891 20.0875 104.266 18.0437H101.716ZM99.5789 13.5625C100.835 13.5625 101.566 14.4062 101.641 15.4562H97.4602C97.6852 14.1437 98.3977 13.5625 99.5789 13.5625Z" fill="#98A2B3"/>
</g>
</svg>
