<svg width="46" height="46" viewBox="0 0 46 46" fill="none" xmlns="http://www.w3.org/2000/svg">
<g style="mix-blend-mode:multiply">
<rect x="3" y="3" width="40" height="40" rx="20" fill="#F4EBFF"/>
<rect x="3" y="3" width="40" height="40" rx="20" stroke="#F9F5FF" stroke-width="6"/>
<path d="M23.8331 14.6667L16.4109 23.5733C16.1203 23.9221 15.9749 24.0965 15.9727 24.2438C15.9708 24.3718 16.0278 24.4937 16.1274 24.5742C16.242 24.6667 16.469 24.6667 16.9231 24.6667H22.9997L22.1664 31.3334L29.5885 22.4269C29.8792 22.0781 30.0245 21.9037 30.0267 21.7564C30.0287 21.6283 29.9716 21.5065 29.872 21.426C29.7574 21.3334 29.5304 21.3334 29.0764 21.3334H22.9997L23.8331 14.6667Z" stroke="#7F56D9" stroke-width="1.66667" stroke-linecap="round" stroke-linejoin="round"/>
</g>
</svg>
