<svg width="11" height="11" viewBox="0 0 11 11" fill="none" xmlns="http://www.w3.org/2000/svg">
<path d="M2.80494 8.65643C2.97493 9.3821 3.27564 10.0715 3.69167 10.6906C2.57731 10.3387 1.61456 9.62197 0.959899 8.65643H2.80494ZM7.23057 10.7224C8.35239 10.3476 9.32409 9.62345 10.002 8.65643H8.16491C7.97653 9.39399 7.66052 10.0934 7.23057 10.7224ZM8.35189 3.13664C8.64017 4.69893 8.64017 6.30107 8.35189 7.86336H10.4673C11.1776 6.36743 11.1776 4.63257 10.4673 3.13664H8.35189ZM8.165 2.34357H10.0021C9.32367 1.37799 8.35192 0.654762 7.23065 0.281573C7.66159 0.908596 7.97761 1.60696 8.165 2.34357ZM5.50079 0C4.62997 0.0674113 4.00175 1.02704 3.62791 2.34357H7.33779C6.89244 0.892176 6.17286 0.0119278 5.50079 0ZM0.955814 2.34357H2.80478C2.97426 1.6189 3.2715 0.929863 3.68354 0.309362C2.57066 0.661779 1.60946 1.37853 0.955814 2.34357ZM0.514435 3.13664C-0.171478 4.63802 -0.171478 6.36198 0.514435 7.86336H2.62984C2.36342 6.29904 2.36342 4.70096 2.62984 3.13664H0.514435ZM5.50476 11C6.2046 10.995 6.88458 10.1127 7.33782 8.65643H3.62793C4.00171 9.97294 4.62997 10.9366 5.50476 11ZM3.44101 3.13664C3.15472 4.69944 3.15472 6.30056 3.44101 7.86336H7.54064C7.84931 6.30297 7.84931 4.69703 7.54064 3.13664H3.44101Z" fill="white" fill-opacity="0.6"/>
</svg>
