<svg width="26" height="17" viewBox="0 0 26 17" fill="none" xmlns="http://www.w3.org/2000/svg">
<path d="M5.66559 7.68943H6.45463C6.53421 7.93528 6.63995 8.17261 6.76842 8.39933L6.21016 8.9219C6.04076 9.08048 6.04076 9.33697 6.21016 9.49557L7.35962 10.5716C7.44035 10.6471 7.55063 10.6908 7.6666 10.6908C7.78144 10.6908 7.89172 10.6482 7.97359 10.5716L8.53184 10.049C8.77401 10.1703 9.02755 10.2682 9.2902 10.3427V11.0813C9.2902 11.3048 9.48462 11.4868 9.72339 11.4868H11.3492C11.588 11.4868 11.7824 11.3048 11.7824 11.0813V10.3427C12.045 10.2682 12.2986 10.1692 12.5408 10.049L13.099 10.5716C13.2684 10.7301 13.5424 10.7301 13.7119 10.5716L14.8613 9.49557C15.0307 9.33699 15.0307 9.0805 14.8613 8.9219L14.3031 8.39933C14.4327 8.17263 14.5373 7.9353 14.6168 7.68943H15.4059C15.6446 7.68943 15.8391 7.50744 15.8391 7.28393V5.762C15.8391 5.5385 15.6447 5.3565 15.4059 5.3565H14.6168C14.5373 5.11065 14.4315 4.87332 14.3031 4.64661L14.8613 4.12509C15.0307 3.96651 15.0307 3.71003 14.8613 3.55143L13.7119 2.47543C13.6311 2.39987 13.5208 2.35623 13.4049 2.35623C13.29 2.35623 13.1798 2.3988 13.0979 2.47543L12.5396 2.99801C12.2975 2.87668 12.0439 2.77876 11.7813 2.70427V1.96566C11.7813 1.74216 11.5869 1.56016 11.3481 1.56016H9.72225C9.48349 1.56016 9.28907 1.74215 9.28907 1.96566V2.70427C9.02643 2.77877 8.7729 2.87775 8.53071 2.99801L7.97245 2.47543C7.80304 2.31685 7.52905 2.31685 7.35962 2.47543L6.21016 3.55143C6.04076 3.71001 6.04076 3.96649 6.21016 4.12509L6.76842 4.64767C6.63881 4.87436 6.53421 5.11169 6.45463 5.35756H5.66559C5.42683 5.35756 5.2324 5.53956 5.2324 5.76306V7.28499C5.2324 7.50849 5.42682 7.6905 5.66559 7.6905V7.68943ZM6.09878 6.1675H6.78891C6.99243 6.1675 7.16979 6.03447 7.21185 5.84714C7.29826 5.47464 7.45402 5.12235 7.67574 4.80095C7.78603 4.64025 7.76215 4.42951 7.61776 4.29434L7.13 3.83669L7.66666 3.33433L8.15442 3.79092C8.29881 3.92608 8.52392 3.94843 8.69562 3.8452C9.03898 3.63766 9.41532 3.49185 9.8144 3.41095C10.0134 3.37051 10.1566 3.20554 10.1566 3.01504V2.36901H10.915V3.01504C10.915 3.20555 11.0571 3.37158 11.2572 3.41095C11.6563 3.49184 12.0326 3.63765 12.376 3.8452C12.5477 3.94844 12.7728 3.92609 12.9172 3.79092L13.405 3.33433L13.9416 3.83669L13.4539 4.29328C13.3095 4.42844 13.2856 4.63917 13.3959 4.79989C13.6176 5.12131 13.7733 5.4736 13.8598 5.84608C13.903 6.03233 14.0792 6.16644 14.2827 6.16644H14.9728V6.87633H14.2827C14.0792 6.87633 13.9018 7.00937 13.8598 7.19669C13.7733 7.57026 13.6176 7.92149 13.3959 8.24288C13.2856 8.40359 13.3095 8.61432 13.4539 8.74949L13.9416 9.20608L13.405 9.70844L12.9172 9.25185C12.7728 9.11669 12.5477 9.09434 12.376 9.19757C12.0326 9.40511 11.6563 9.55093 11.2584 9.63182C11.0594 9.67226 10.9161 9.83723 10.9161 10.0277V10.6738H10.1578V10.0277C10.1578 9.83722 10.0157 9.67119 9.81556 9.63182C9.41762 9.55093 9.04128 9.40512 8.69794 9.19757C8.52626 9.09433 8.30114 9.11669 8.15674 9.25185L7.66899 9.70844L7.13233 9.20608L7.62009 8.74843C7.76448 8.61326 7.78836 8.40254 7.67807 8.24182C7.45637 7.9204 7.3006 7.56811 7.21418 7.19454C7.17097 7.00829 6.99475 6.87418 6.79124 6.87418H6.1011V6.16429L6.09878 6.1675ZM10.5351 9.25392C12.1439 9.25392 13.4516 8.02892 13.4516 6.52388C13.4516 5.01884 12.1429 3.79383 10.5351 3.79383C8.92733 3.79383 7.6187 5.01884 7.6187 6.52388C7.6187 8.02892 8.92733 9.25392 10.5351 9.25392ZM10.5351 4.60413C11.6653 4.60413 12.5851 5.46516 12.5851 6.52306C12.5851 7.58097 11.6653 8.44199 10.5351 8.44199C9.40499 8.44199 8.48518 7.58097 8.48518 6.52306C8.48518 5.46516 9.40499 4.60413 10.5351 4.60413ZM24.9176 1.90934H21.0701V1.39317C21.0701 0.624749 20.4027 0 19.5818 0H1.48828C0.667403 0 0 0.624749 0 1.39317V13.2792C0 14.0476 0.667403 14.6724 1.48828 14.6724H5.99187L5.06638 16.1592C4.95723 16.3348 4.9561 16.5434 5.06297 16.7169C5.16985 16.8914 5.36882 16.9989 5.58257 16.9989H15.4888C15.7026 16.9989 15.9016 16.8904 16.0084 16.7169C16.1153 16.5423 16.1142 16.3338 16.005 16.1592L15.0795 14.6724H16.6451V15.9868C16.6451 16.5455 17.1306 17 17.7275 17H24.9176C25.5145 17 26 16.5455 26 15.9868V2.92262C26 2.36386 25.5145 1.90934 24.9176 1.90934ZM17.5116 13.0461H25.1339V13.6304H17.5116V13.0461ZM17.5116 11.6508H25.1339V12.2351H17.5116V11.6508ZM25.1339 2.92259V10.84H17.5116V2.92259C17.5116 2.81297 17.6105 2.72144 17.7265 2.72144H24.9165C25.0336 2.72144 25.1314 2.81403 25.1314 2.92259H25.1339ZM1.48866 0.81103H19.5833C19.9256 0.81103 20.2052 1.07178 20.2052 1.39319V1.90937H17.7278C17.1309 1.90937 16.6454 2.36383 16.6454 2.92259V12.2353H0.866722V1.39328C0.866722 1.07292 1.1453 0.81103 1.48866 0.81103ZM0.86675 13.2782V13.0462H16.6455V13.8604H1.48875C1.14652 13.8604 0.86675 13.5996 0.86675 13.2782ZM15.0208 16.1881H6.05142L6.9951 14.6715H14.076L15.0197 16.1881H15.0208ZM24.918 16.1881H17.7279C17.6108 16.1881 17.513 16.0955 17.513 15.9869V14.4426H25.1353V15.9869C25.1353 16.0966 25.0364 16.1881 24.9204 16.1881H24.918ZM21.3228 6.91603C20.4792 6.91603 19.7936 7.55781 19.7936 8.3475C19.7936 9.1372 20.4792 9.77898 21.3228 9.77898C22.1664 9.77898 22.852 9.1372 22.852 8.3475C22.852 7.55781 22.1664 6.91603 21.3228 6.91603ZM21.3228 8.96798C20.9567 8.96798 20.66 8.68914 20.66 8.3475C20.66 8.00587 20.9578 7.72703 21.3228 7.72703C21.6878 7.72703 21.9856 8.00587 21.9856 8.3475C21.9856 8.68914 21.6889 8.96798 21.3228 8.96798ZM18.8499 5.72625H23.7945C24.1458 5.72625 24.4312 5.45912 24.4312 5.13025V4.11596C24.4312 3.7871 24.1458 3.51996 23.7945 3.51996H18.8499C18.4986 3.51996 18.2132 3.7871 18.2132 4.11596V5.13025C18.2132 5.45911 18.4986 5.72625 18.8499 5.72625ZM19.0796 4.3299H23.566V4.91419H19.0796V4.3299Z" fill="#FF7A00"/>
</svg>
